<?xml version="1.0" encoding="UTF-8"?><!DOCTYPE svg PUBLIC "-//W3C//DTD SVG 1.1//EN" "http://www.w3.org/Graphics/SVG/1.1/DTD/svg11.dtd"><svg xmlns="http://www.w3.org/2000/svg"><symbol id="robot-1" viewBox="0 0 32 32"><path d="M26.402 19.833v-8.172H5.598v8.172c-.47.263-.777.659-.777 1.107 0 .396.235.756.615 1.016.257-.462.776-.778 1.376-.778.637 0 1.184.356 1.421.865.462-.262.755-.659.755-1.103 0-.401-.242-.764-.629-1.022v-5.494h2.787v6.745h-.004v6.889c-1.625.226-2.872 1.535-2.872 3.122 0 .283.041.559.116.819H11.6V32h3.225c.075-.262.116-.537.116-.82 0-1.113-.616-2.09-1.545-2.652v-7.245h5.208V28.528c-.93.562-1.545 1.539-1.545 2.652 0 .283.041.559.115.82H20.4v-.002h3.215c.075-.262.116-.537.116-.82 0-1.586-1.248-2.895-2.873-3.123v-6.888h-.008v-6.745H23.64V19.914c-.387.26-.629.621-.629 1.022 0 .443.295.84.756 1.103.238-.509.785-.865 1.422-.865.6 0 1.119.316 1.376.778.38-.26.614-.619.614-1.016 0-.445-.308-.841-.777-1.103zm-10.344-.283c-.02 0-.04-.002-.059-.003-.02 0-.039.003-.059.003a3.08 3.08 0 0 1-3.077-3.077 3.08 3.08 0 0 1 3.077-3.077c.02 0 .039.002.059.003.02-.001.039-.003.059-.003a3.08 3.08 0 0 1 3.076 3.077 3.08 3.08 0 0 1-3.076 3.077z"/><path d="M16.058 14.195a.436.436 0 0 0-.051.003h-.016l-.051-.003c-1.256 0-2.278 1.022-2.278 2.278a2.28 2.28 0 0 0 2.329 2.276v-.001h.016v.001a2.282 2.282 0 0 0 2.33-2.276 2.282 2.282 0 0 0-2.279-2.278zm0 3.828l-.059-.002-.059.002a1.551 1.551 0 0 1 0-3.102l.059.002.059-.002a1.551 1.551 0 0 1 0 3.102zM19.763 11.096a3.61 3.61 0 0 0 .062-.665c0-2.027-1.672-3.698-3.744-3.76h-.073v.001h-.016-.073c-2.072.062-3.744 1.733-3.744 3.76 0 .223.021.445.062.665h1.194a2.572 2.572 0 0 1-.036-.415c0-1.397 1.153-2.531 2.581-2.545v.001l.023.002.024-.002v-.002c1.428.015 2.581 1.148 2.581 2.545 0 .142-.014.28-.036.415h1.195z"/><path d="M11.427 11.096a4.352 4.352 0 0 1-.052-.665c0-2.489 2.07-4.535 4.615-4.561h.019c2.543.026 4.614 2.072 4.614 4.561 0 .223-.019.445-.052.665h1.203c.124-.45.19-.921.19-1.407 0-3.014-2.522-5.468-5.699-5.628V1.953A.985.985 0 0 0 16.079 0h-.16a.986.986 0 0 0-.188 1.953V4.06c-3.174.161-5.698 2.615-5.698 5.629 0 .486.068.957.192 1.407h1.202z"/></symbol><symbol id="robot-2" viewBox="0 0 32 32"><circle cx="15.63" cy="3.573" r=".49"/><circle cx="20.37" cy="3.573" r=".49"/><path d="M17.629 18.928a.83.83 0 1 0 1.584-.501.83.83 0 1 0-1.584.501zm.713-.555a.316.316 0 1 1 .19.602.316.316 0 0 1-.19-.602z"/><path d="M27.372 4.232a.772.772 0 0 0-.664.385h-1.651a1.282 1.282 0 0 0-1.19-.813 1.28 1.28 0 0 0-1.191.813H21.43v-.021C21.43 2.058 19.01 0 16.023 0L16 .001 15.978 0c-2.986 0-5.408 2.058-5.408 4.596l.001.021H9.325a1.28 1.28 0 1 0-2.382 0H5.291a.767.767 0 0 0-1.433.384.767.767 0 1 0 1.433.385H6.89c.135.564.639.984 1.243.984s1.109-.42 1.245-.983h1.273c.329 1.605 1.636 2.926 3.381 3.498v1.162h-1.068c-.779 0-1.476.35-1.947.898H8.058c-.572 0-1.036.463-1.036 1.036v8.732h-.139a.93.93 0 0 0-.93.93l.001.017a.725.725 0 0 0-.023.176v1.133a.749.749 0 1 0 1.497 0v-.395h1.219v.395a.748.748 0 1 0 1.497 0v-1.133c0-.033-.006-.063-.01-.096.003-.032.01-.063.01-.097a.93.93 0 0 0-.93-.93h-.119v-7.46h1.304v6.584c0 1.015.59 1.888 1.443 2.304v7.309a2.802 2.802 0 0 0-1.635 2.551h5.59a2.806 2.806 0 0 0-1.636-2.552v-7.046h3.677v7.046a2.804 2.804 0 0 0-1.636 2.552h5.589c0-1.135-.67-2.109-1.636-2.552v-7.308a2.565 2.565 0 0 0 1.443-2.305v-6.584h1.304v7.46h-.117a.93.93 0 0 0-.931.931c0 .032.007.063.01.096-.004.031-.01.062-.01.096v1.133a.749.749 0 1 0 1.498 0v-.395h1.218v.395a.748.748 0 1 0 1.497 0v-1.133a.785.785 0 0 0-.022-.176l.002-.016a.931.931 0 0 0-.931-.931h-.139V11.98c0-.572-.464-1.036-1.037-1.036h-2.959a2.559 2.559 0 0 0-1.947-.898h-1.067V8.884c1.744-.572 3.053-1.892 3.381-3.498h1.273a1.28 1.28 0 0 0 1.244.983 1.28 1.28 0 0 0 1.243-.983h1.599a.77.77 0 1 0 .665-1.154zM12.387 4.04a1.134 1.134 0 1 1 2.268.002 1.134 1.134 0 0 1-2.268-.002zm5.791 12.927l.06.19c.218-.026.438-.005.647.062l.098-.187a.078.078 0 0 1 .046-.038.07.07 0 0 1 .06.005l.334.173c.039.02.054.067.033.105l-.1.19c.172.134.312.304.414.495l.211-.066a.08.08 0 0 1 .1.051l.112.357a.08.08 0 0 1-.051.1l-.211.066c.026.213.01.43-.054.637l.196.102c.039.02.054.068.033.107l-.173.332a.073.073 0 0 1-.047.037.068.068 0 0 1-.059-.004l-.191-.1a1.517 1.517 0 0 1-.497.428l.065.208a.078.078 0 0 1-.052.099l-.356.113a.08.08 0 0 1-.1-.051l-.064-.202a1.523 1.523 0 0 1-.657-.052l-.093.18a.08.08 0 0 1-.107.033l-.332-.173a.082.082 0 0 1-.034-.106l.091-.175a1.496 1.496 0 0 1-.431-.508l-.181.058a.08.08 0 0 1-.099-.053l-.113-.355a.08.08 0 0 1 .052-.1l.18-.057a1.528 1.528 0 0 1 .062-.669l-.17-.089a.083.083 0 0 1-.039-.047.078.078 0 0 1 .005-.06l.173-.333a.078.078 0 0 1 .105-.033l.176.092c.137-.176.311-.317.507-.418l-.058-.184a.076.076 0 0 1 .051-.099l.357-.112a.078.078 0 0 1 .101.051zm-.112-2.574l-.022.655a.138.138 0 0 1-.144.134l-.388-.013a2.672 2.672 0 0 1-.459 1.021l.264.283a.138.138 0 0 1-.006.194l-.479.447a.14.14 0 0 1-.196-.007l-.256-.274a2.673 2.673 0 0 1-1.07.415l-.013.382a.138.138 0 0 1-.142.134l-.655-.023a.138.138 0 0 1-.133-.144l.012-.371a2.642 2.642 0 0 1-1.056-.471l-.258.241a.137.137 0 0 1-.195-.007l-.447-.479a.141.141 0 0 1 .006-.194l.252-.236a2.652 2.652 0 0 1-.415-1.092l-.331-.012a.138.138 0 0 1-.134-.142l.023-.655a.136.136 0 0 1 .143-.133l.331.011c.082-.388.251-.753.493-1.068l-.229-.245a.143.143 0 0 1-.037-.099.137.137 0 0 1 .044-.097l.479-.447a.138.138 0 0 1 .195.007l.235.252a2.674 2.674 0 0 1 1.079-.393l.011-.335a.138.138 0 0 1 .143-.134l.654.022a.14.14 0 0 1 .134.143l-.013.348c.375.085.728.249 1.033.482l.269-.251a.14.14 0 0 1 .099-.037.14.14 0 0 1 .096.043l.447.479a.137.137 0 0 1-.008.195l-.274.257c.205.32.339.682.394 1.057l.387.013a.143.143 0 0 1 .137.144zm-.399-7.094h-3.334a.449.449 0 1 1 0-.898h3.334a.448.448 0 1 1 0 .898zm.812-2.126a1.133 1.133 0 1 1 0-2.265 1.133 1.133 0 0 1 0 2.265z"/><path d="M14.983 13.178a1.454 1.454 0 1 0-.1 2.906 1.454 1.454 0 0 0 .1-2.906zm-.068 2.006a.553.553 0 0 1 .038-1.104.553.553 0 0 1-.038 1.104z"/></symbol><symbol id="robot-design" viewBox="0 0 32 32"><circle cx="16.047" cy="7.846" r=".963"/><path d="M14.608 25.559h2.201v.846h-2.201zM14.608 26.846h2.201v.846h-2.201zM14.608 27.994h2.201v.846h-2.201zM16.81 29.943v-.661h-2.201v.661A2.334 2.334 0 0 0 13.378 32h4.665a2.34 2.34 0 0 0-1.233-2.057zM19.657 25.559h2.201v.846h-2.201zM19.657 26.846h2.201v.846h-2.201zM19.657 27.994h2.201v.846h-2.201zM21.858 29.943v-.661h-2.201v.661A2.335 2.335 0 0 0 18.425 32h4.664a2.327 2.327 0 0 0-1.231-2.057z"/><circle cx="20.353" cy="7.846" r=".963"/><path d="M27.97 21.963l.004-.001-4.129-8.167-.002.001v-.001h-3.209v-2.031h2.235V5.19h-2.708V3.836h-1.792V1.001h.367V0h-1.073v1.001h.367v2.835h-1.791V5.19h-2.708v6.573h2.236v2.031h-3.238l-2.462 3.034-4.365-3.954v-1.605h-.88v2.251H2.571v.88h1.792l5.927 5.37 2.24-2.746v6.617h2.031v1.522h2.199v-1.522h2.851v1.522h2.2v-1.522h2.031V18.29l2.179 4.31-.695 1.648.812.342.875-2.074 2.074.875.342-.812-1.459-.616zM21.99 7.846a1.637 1.637 0 1 1-3.275 0 1.637 1.637 0 0 1 3.275 0zm-7.58 0a1.637 1.637 0 1 1 3.274 0 1.637 1.637 0 0 1-3.274 0zm4.728 13.579h-4.895v-1.301h4.895v1.301zm0-2.059h-4.895v-1.302h4.895v1.302zm0-2.098h-4.895v-1.301h4.895v1.301zM18.2 10.79h-1.834v-.649h3.667v.649H18.2zm4.028 10.635h-2.356v-1.301h2.356v1.301zm0-2.059h-2.356v-1.302h2.356v1.302zm0-2.098h-2.356v-1.301h2.356v1.301z"/></symbol><symbol id="robot-front" viewBox="0 0 32 32"><path d="M26.455 20.146c.024-1.252-.069-5.132-2.047-7.337-.888-.991-2.022-1.527-3.371-1.595v-.001h-3.136v-.888c2.888-.469 5.009-2.033 5.009-3.891 0-1.381-1.174-2.6-2.963-3.328l.703-1.771a.69.69 0 1 0-.146-.077l-1.723 1.467a10.94 10.94 0 0 0-2.69-.327H16.07c-.949 0-1.852.115-2.672.322l-1.721-1.466a.69.69 0 1 0-.395.125c.088 0 .17-.019.247-.048l.701 1.768c-1.799.727-2.98 1.949-2.98 3.335 0 1.862 2.131 3.428 5.028 3.895v.884h-3.349v.004c-1.333.074-2.457.609-3.337 1.592-1.977 2.206-2.071 6.085-2.046 7.337-1.081.336-1.861 1.259-1.861 2.345 0 .021.003.041.004.062h1.467c-.001-.021-.005-.041-.005-.062 0-.562.58-1.017 1.292-1.017.712 0 1.293.455 1.293 1.017 0 .021-.004.041-.006.062h1.467c0-.021.003-.041.003-.062 0-.988-.646-1.841-1.577-2.24-.051-1.303.123-4.509 1.516-6.06a2.634 2.634 0 0 1 1.789-.892v9.118h.629v2.075c-.374.292-.609.711-.609 1.176 0 .466.235.884.609 1.177v2.929A2.528 2.528 0 0 0 10.226 32h5.048c0-.963-.54-1.8-1.333-2.225v-2.803c.48-.291.794-.766.794-1.304s-.314-1.012-.794-1.303v-1.948h4.016v1.948c-.48.291-.795.766-.795 1.303s.313 1.013.795 1.304v2.803A2.52 2.52 0 0 0 16.623 32h5.046c0-.963-.539-1.8-1.332-2.225v-2.93c.375-.291.611-.71.611-1.177 0-.465-.236-.884-.611-1.176v-2.075h.699v-9.121a2.628 2.628 0 0 1 1.823.895c1.394 1.55 1.567 4.757 1.517 6.06-.932.398-1.578 1.251-1.578 2.24 0 .02.004.041.005.062h1.467c-.001-.021-.006-.043-.006-.062 0-.562.58-1.018 1.293-1.018.712 0 1.292.457 1.292 1.018 0 .02-.004.041-.005.062h1.467c0-.021.004-.043.004-.062-.001-1.086-.78-2.009-1.86-2.345zM19.072 4.489a1.172 1.172 0 1 1 .001 2.343 1.172 1.172 0 0 1-.001-2.343zm-7.137 1.167a1.17 1.17 0 1 1 2.341 0 1.17 1.17 0 0 1-2.341 0zm1.936 2.269h2.218v.003h2.219v.998h-2.219v-.004h-2.218v-.997zm.539 6.532h5.664v.657H14.41v-.657zm0 1.342h5.664v.658H14.41v-.658zm5.664-2.067H14.41v-.657h5.664v.657zm-7.262 5.83a.855.855 0 0 1 .719 1.314l-1.179-1.179a.861.861 0 0 1 .46-.135zm-.826-1.275c0-.169.051-.326.137-.459l1.178 1.178a.85.85 0 0 1-1.315-.719zm1.574.46l-1.179-1.179a.855.855 0 0 1 1.179 1.179zm-1.208-3.324a.855.855 0 0 1 1.178 1.178l-1.178-1.178zm.46-2.348a.854.854 0 0 1 .719 1.314l-1.179-1.179a.861.861 0 0 1 .46-.135zm-.719.395l1.179 1.179a.854.854 0 0 1-1.179-1.179zm0 2.213l1.179 1.178a.854.854 0 0 1-1.179-1.178zm0 4.274l1.179 1.179a.85.85 0 0 1-1.314-.718.842.842 0 0 1 .135-.461zm2.317-2.738h5.664v4.053H14.41v-4.053z"/><circle cx="13.106" cy="5.656" r=".689"/><circle cx="19.072" cy="5.66" r=".689"/></symbol><symbol id="robot-machine" viewBox="0 0 32 32"><path d="M17.634 24.156h4.35l.404-9.652a1.568 1.568 0 0 0 2.576-1.205 1.57 1.57 0 0 0-1.568-1.57 1.57 1.57 0 0 0-1.523 1.194H10.129a1.57 1.57 0 1 0-.516 1.581l.406 9.652h4.349v2.342H8.604V32h14.795v-5.502h-5.767v-2.342h.002zm-3.792-6.129l.01-.258a1.855 1.855 0 0 1-.737-.33l-.182.168a.095.095 0 0 1-.136-.004l-.313-.334a.1.1 0 0 1 .005-.137l.176-.164a1.867 1.867 0 0 1-.289-.763l-.232-.009a.098.098 0 0 1-.094-.1l.017-.457a.097.097 0 0 1 .1-.094l.231.008c.057-.271.175-.526.344-.746l-.159-.171c-.018-.019-.027-.043-.026-.069s.013-.05.031-.067l.334-.313a.096.096 0 0 1 .136.005l.165.176c.229-.146.486-.239.754-.274l.007-.235a.096.096 0 0 1 .1-.093l.458.016a.097.097 0 0 1 .093.1l-.008.243c.262.059.508.174.721.337l.188-.176a.096.096 0 0 1 .07-.026c.024 0 .049.012.066.03l.122.131.19.204c.036.039.034.1-.004.136l-.186.175-.006.005.006.011c.139.221.231.469.269.727l.271.01a.095.095 0 0 1 .093.099l-.016.458a.095.095 0 0 1-.1.092l-.271-.008a1.86 1.86 0 0 1-.321.712l.075.08.11.118c.036.039.034.1-.005.136l-.105.099-.229.213a.088.088 0 0 1-.07.026.097.097 0 0 1-.066-.03l-.179-.19a1.862 1.862 0 0 1-.748.29l-.01.265a.096.096 0 0 1-.1.093l-.458-.015a.095.095 0 0 1-.092-.1zm.459 2.819l.018-.546a.114.114 0 0 1 .119-.11l.274.011a2.2 2.2 0 0 1 .41-.888l-.19-.203a.115.115 0 0 1-.03-.084.122.122 0 0 1 .037-.08l.397-.37a.115.115 0 0 1 .162.006l.196.21c.032-.021.064-.037.099-.057a2.25 2.25 0 0 1 .797-.271l.011-.278a.113.113 0 0 1 .118-.11l.543.019a.115.115 0 0 1 .111.119l-.01.287c.311.07.604.207.857.4l.225-.209a.11.11 0 0 1 .082-.031.115.115 0 0 1 .08.037l.372.397a.112.112 0 0 1-.007.161l-.229.214c.17.265.281.565.326.878l.322.012a.113.113 0 0 1 .109.119l-.019.545a.113.113 0 0 1-.118.108l-.322-.011a2.194 2.194 0 0 1-.381.849l.221.233a.118.118 0 0 1-.006.162l-.397.373a.11.11 0 0 1-.082.029.118.118 0 0 1-.08-.037l-.214-.229c-.27.178-.571.296-.891.346l-.011.316a.113.113 0 0 1-.118.109l-.544-.019a.116.116 0 0 1-.111-.119l.012-.308a2.171 2.171 0 0 1-.648-.244 2.468 2.468 0 0 1-.229-.146l-.214.201a.113.113 0 0 1-.162-.007l-.372-.397a.116.116 0 0 1 .006-.161l.209-.196a2.202 2.202 0 0 1-.344-.906l-.273-.01a.109.109 0 0 1-.111-.114zm8.389 6.36v4.086H9.312v-4.086H22.69zm-7.436-11.215a1.016 1.016 0 1 0-2.032-.07 1.016 1.016 0 0 0 2.032.07zm-1.029.35a.386.386 0 0 1 .025-.771.386.386 0 0 1-.025.771zm2.636 5.543a1.208 1.208 0 1 0 .083-2.415 1.208 1.208 0 0 0-.083 2.415zm.058-1.666a.46.46 0 1 1-.034.918.46.46 0 0 1 .034-.918zm-3.633-14.4h.943v.884h-.943v-.884zM8.653 20.797l-2.526-.383.127-.836 2.526.383-.127.836zm-.174 1.144l-2.526-.381.127-.838 2.526.383-.127.836zm-.176 1.161l-2.525-.385.127-.836 2.525.385-.127.836zm1.044-6.881l-2.526-.383.127-.837 2.526.383-.127.837zm-.174 1.144l-2.526-.385.127-.836 2.526.385-.127.836zm-.175 1.158l-2.525-.383.126-.836 2.526.381-.127.838zm-.175 1.147l-2.526-.384.127-.837 2.526.385-.127.836zm-3.865 3.523l3.644.474-.263 2.021-.956-.125.136-1.043-1.732-.226-.135 1.043-.957-.125.263-2.019zm11.055-12.068h5.085V3.606h-.895v-1.68h.895V0h-1.926v1.926h.568v1.68h-7.463v-1.68h.569V0h-1.924v1.926h.894v1.68h-.915v7.519h5.112zm1.589-5.897h2.2v2.044h-2.2V5.228zm-5.304 0H14.5v2.044h-2.202V5.228zm.747 4.009h5.911v.649h-5.911v-.649zm4.808-3.419h.941v.884h-.941v-.884zM23.22 19.96l2.526-.384.128.836-2.527.385-.127-.837zm.176 1.145l2.525-.383.127.836-2.525.385-.127-.838zm.174 1.159l2.526-.384.127.837-2.526.383-.127-.836zm-1.043-6.881L25.054 15l.127.836-2.525.383-.129-.836zm.171 1.147l2.527-.384.127.836-2.527.385-.127-.837zm.18 1.158l2.525-.383.126.836-2.524.383-.127-.836zm.174 1.144l2.525-.384.127.837-2.525.383-.127-.836zm4.254 6.38l-.953.125-.137-1.043-1.731.226.135 1.043-.954.125-.263-2.021 3.644-.474.259 2.019zm-14.438 4.074a.864.864 0 1 1-1.729 0 .864.864 0 0 1 1.729 0zm2.595-.009a.864.864 0 1 1-1.728.002.864.864 0 0 1 1.728-.002zm3.671.009a.865.865 0 1 1 1.73 0 .865.865 0 0 1-1.73 0zm-2.597-.009a.864.864 0 1 1 1.729 0 .864.864 0 0 1-1.729 0z"/></symbol><symbol id="robot-monster-of-one-eye" viewBox="0 0 32 32"><path d="M27.507 21.991h-.028v-.673h-.224v-9.511c0-.028.003-.056.003-.083 0-2.358-2.277-4.414-5.648-5.496H10.393c-3.372 1.082-5.65 3.138-5.65 5.496 0 .028.003.055.004.083v9.511h-.225v.673H4.176v1.851h.848v-.925h1.537v.925h.849v-1.851h-.407v-.673h-.224V15.36c.904.727 2.072 1.339 3.424 1.793a1.6 1.6 0 0 0-.295.896c0 1.227 1.581 2.278 3.823 2.715-1.026.305-1.694.801-1.694 1.361 0 .671.956 1.248 2.335 1.518H9.73c-.237 0-.455.076-.634.203-.33.219-.548.594-.548 1.02v4.746c-.943.45-1.588 1.349-1.588 2.388h5.896c0-1.136-.771-2.105-1.861-2.501v-3.662h10.011v3.662c-1.088.396-1.859 1.365-1.859 2.501h5.896c0-1.039-.646-1.938-1.589-2.387v-4.746c0-.426-.217-.799-.547-1.02a1.094 1.094 0 0 0-.635-.203h-4.643c1.38-.27 2.335-.847 2.335-1.518 0-.561-.668-1.057-1.694-1.361 2.243-.437 3.824-1.488 3.824-2.715a1.6 1.6 0 0 0-.295-.896c1.352-.454 2.52-1.067 3.424-1.793v5.958h-.224v.673h-.407v1.851h.848v-.925h1.537v.925h.848v-1.851h-.318zM21.578 5.514A5.514 5.514 0 0 0 16.064 0l-.063.003c-.022 0-.042-.003-.063-.003a5.515 5.515 0 0 0-5.515 5.514H21.578zm-7.501-2.588a2.068 2.068 0 1 1 4.136 0 2.068 2.068 0 0 1-4.136 0z"/><path d="M17.227 2.926a1.081 1.081 0 0 0-1.207-1.074.647.647 0 0 1-.937.879 1.081 1.081 0 1 0 2.144.195z"/></symbol><symbol id="robot-of-circular-parts" viewBox="0 0 31.998 31.998"><path d="M23.608 28.365a1.285 1.285 0 0 0-.336-2.25c.5-.178.861-.649.861-1.211 0-.565-.365-1.04-.871-1.215a1.283 1.283 0 0 0 .86-1.371 11.16 11.16 0 0 0 3.345-7.979H4.529c0 3.124 1.28 5.946 3.344 7.977a1.288 1.288 0 0 0 .863 1.363 1.284 1.284 0 0 0-.872 1.213c0 .562.36 1.035.861 1.213a1.284 1.284 0 0 0-.336 2.248 3.749 3.749 0 0 0-2.837 3.633h7.501a3.747 3.747 0 0 0-2.483-3.525 1.284 1.284 0 0 0-.164-2.357c.501-.177.862-.649.862-1.211 0-.105-.017-.207-.041-.305 1.375.604 2.894.941 4.493.941.092 0 .182-.004.273-.008.094.002.188.008.282.008 1.6 0 3.12-.338 4.496-.942a1.266 1.266 0 0 0-.043.315c0 .562.361 1.035.861 1.211a1.286 1.286 0 0 0-.162 2.358 3.75 3.75 0 0 0-2.483 3.527h7.501a3.745 3.745 0 0 0-2.837-3.633zM10.104 5.454c.052.34.302 1.758.974 3.021a6.817 6.817 0 0 0-1.911 4.74h13.665a6.82 6.82 0 0 0-1.907-4.737c.67-1.261.918-2.675.972-3.015a2.76 2.76 0 1 0-1.243-.012c-.075.415-.276 1.337-.685 2.2a6.808 6.808 0 0 0-3.953-1.277h-.032a6.818 6.818 0 0 0-3.95 1.274c-.411-.865-.612-1.791-.689-2.207A2.757 2.757 0 0 0 10.7 0a2.759 2.759 0 0 0-.596 5.454zm9.292-2.683a1.905 1.905 0 1 1 3.81.001 1.905 1.905 0 0 1-3.81-.001zm-6.556 8.351h6.321v.941H12.84v-.941zM10.7.856a1.904 1.904 0 1 1 0 3.808 1.904 1.904 0 0 1 0-3.808z"/><circle cx="10.7" cy="2.76" r=".862"/><circle cx="21.3" cy="2.771" r=".862"/></symbol><symbol id="robot-of-long-arms-and-short-legs" viewBox="0 0 32 32"><path d="M2.357 18.578l2.721.71-.235.901-2.721-.711.235-.9zm-.559 2.136l2.721.711.235-.9-2.721-.711-.235.9zm2.633 1.057l-2.722-.711-.235.899 2.722.712.235-.9zm-1.022-7.222l2.721.711.235-.901-2.721-.711-.235.901zm-.323 1.236l2.721.711.235-.902-2.721-.711-.235.902zm-.326 1.246l2.721.711.235-.899-2.721-.711-.235.899zm-.321 1.234l2.72.711.235-.9-2.72-.711-.235.9zM0 24.566l1.032.246.268-1.123 1.87.444-.269 1.125 1.032.247.52-2.18-3.933-.938L0 24.566zm29.646-5.987l-2.724.711.235.899 2.722-.711-.233-.899zm.323 1.235l-2.721.711.234.899 2.722-.711-.235-.899zm-2.164 2.856l2.721-.71-.234-.9-2.721.709.234.901zm.552-9.02l-2.721.71.234.901 2.721-.71-.234-.901zm.321 1.235l-2.72.71.235.901 2.72-.71-.235-.901zm.326 1.243l-2.721.711.234.898 2.721-.711-.234-.898zm.322 1.235l-2.721.712.234.901 2.721-.712-.234-.901zm-1.262-5.565a1.73 1.73 0 0 0-3.379-.304c-.414-.582-1.049-.955-1.761-.955H9.074c-.711 0-1.346.374-1.76.956a1.728 1.728 0 1 0-.503 1.765v9.318c0 1.418 1.013 2.567 2.263 2.567h2.376v3.666h-1.373a.947.947 0 1 0 0 1.893H13.922v-4.457H18.08v4.457H21.924a.947.947 0 0 0 0-1.893H20.55v-3.665h2.376c1.25 0 2.264-1.149 2.264-2.567V13.26a1.724 1.724 0 0 0 2.874-1.462zm3.416 10.589l-3.935.938.521 2.18 1.033-.247-.271-1.125 1.87-.444.271 1.125L32 24.566l-.52-2.179zM15.962 9.464h-6.76V6.482c0-2.864 2.004-5.186 4.478-5.186l2.283-.002H16.039l2.281.002c2.474 0 4.478 2.322 4.478 5.186v2.983h-6.831v-.001h-.005zm-2.374-3.36h4.825a1.671 1.671 0 0 0 0-3.342h-4.825a1.671 1.671 0 0 0 0 3.342zm1.05 2.785h2.725c.523 0 .945-.424.945-.947s-.422-.947-.945-.947h-2.725a.946.946 0 0 0 0 1.894zm-.474-5.404a.947.947 0 1 0 0 1.894.947.947 0 0 0 0-1.894zm3.673 1.894a.948.948 0 1 0-.001-1.895.948.948 0 0 0 .001 1.895z"/></symbol><symbol id="robot-of-rounded-head" viewBox="0 0 32.001 32.001"><path d="M24.66 23.699a4.28 4.28 0 0 0-4.278-4.279h-1.646v-.852a6.727 6.727 0 0 0 3.418-3.497 2.794 2.794 0 0 0-.142-5.55 6.716 6.716 0 0 0-1.467-1.977l2.279-6.524a.767.767 0 1 0-1.45-.506l-2.125 6.082a6.667 6.667 0 0 0-3.242-.854h-.016a6.69 6.69 0 0 0-3.24.854L10.627.514a.768.768 0 1 0-1.45.506l2.279 6.524a6.734 6.734 0 0 0-1.467 1.977 2.8 2.8 0 0 0-2.539 2.786 2.8 2.8 0 0 0 2.396 2.767 6.728 6.728 0 0 0 3.418 3.496v.852h-1.645a4.277 4.277 0 0 0-.072 8.554v4.025h3.292v-4.023h2.324v4.023h3.291v-4.024a4.28 4.28 0 0 0 4.206-4.278zm-3.687-2.428l.993.994a.72.72 0 0 1-.993-.994zm0 1.911l.993.994a.721.721 0 0 1-.993-.994zm-9.847-10.728a4.905 4.905 0 0 1 4.866-4.9h.016a4.907 4.907 0 0 1 4.867 4.9 4.907 4.907 0 0 1-4.867 4.899h-.016a4.905 4.905 0 0 1-4.866-4.899zM21.58 26.309a.721.721 0 0 1-.607-1.108l.993.992a.702.702 0 0 1-.386.116zm.605-.332l-.992-.995a.72.72 0 0 1 1.109.608.745.745 0 0 1-.117.387zm0-2.02l-.992-.993a.721.721 0 0 1 1.109.606.734.734 0 0 1-.117.387zm0-1.911l-.992-.994a.722.722 0 0 1 1.109.608.73.73 0 0 1-.117.386z"/><path d="M20.107 12.454a4.135 4.135 0 0 0-4.106-4.131 4.135 4.135 0 0 0-4.106 4.131 4.136 4.136 0 0 0 4.106 4.131 4.137 4.137 0 0 0 4.106-4.131zm-7.061 0a2.98 2.98 0 0 1 2.947-2.979v-.001h.016v.001a2.979 2.979 0 0 1 0 5.958h-.016a2.98 2.98 0 0 1-2.947-2.979z"/></symbol><symbol id="robot-of-short-spherical-shape" viewBox="0 0 32 32"><path d="M24.691 28.291h-3.103v-3.754a9.982 9.982 0 0 0 3.444-3.555h-9.02v-.004H6.968a9.994 9.994 0 0 0 3.444 3.553v3.756H7.309a1.855 1.855 0 0 0 0 3.708h4.2a1.855 1.855 0 0 0 1.854-1.854c0-.047-.004-.095-.007-.142.004-.049.007-.101.007-.149v-4.063c.837.215 1.717.336 2.625.345v.006a10.953 10.953 0 0 0 2.648-.346v4.062c0 .052.002.102.008.15-.004.047-.008.094-.008.143 0 1.023.83 1.854 1.854 1.854h4.2a1.855 1.855 0 0 0 .001-3.71zM12.91 16.689a1.307 1.307 0 1 0-.151-2.604.785.785 0 0 1-.633 1.244.78.78 0 0 1-.5-.184 1.306 1.306 0 0 0 1.284 1.544z"/><path d="M7.158 17.407c0 .753.107 1.481.306 2.177h8.525v.004h8.549a7.873 7.873 0 0 0 .306-2.176c0-3.608-2.435-6.681-5.848-7.861a2.29 2.29 0 0 0-.302-1.944l1.832-3.438a2.101 2.101 0 1 0-1.188-.671l-1.734 3.257a2.291 2.291 0 0 0-.801-.147h-.79v-.004H15.2c-.283 0-.551.053-.801.147l-1.736-3.259a2.09 2.09 0 0 0 .531-1.392 2.1 2.1 0 1 0-1.716 2.064l1.832 3.438a2.274 2.274 0 0 0-.304 1.943c-3.414 1.181-5.848 4.255-5.848 7.862zm14.431-2.019a2.497 2.497 0 1 1-4.995.001 2.497 2.497 0 0 1 4.995-.001zm-8.679-2.503a2.498 2.498 0 1 1 0 4.996 2.498 2.498 0 0 1 0-4.996z"/><path d="M19.093 16.693a1.305 1.305 0 0 0 1.284-1.542.78.78 0 0 1-1.283-.601c0-.172.057-.331.15-.46a1.306 1.306 0 1 0-.151 2.603z"/></symbol><symbol id="robot-standing-over-wheels-with-an-antenna-on-the-head" viewBox="0 0 32 32"><circle cx="13.313" cy="8.455" r=".718"/><path d="M15.904 12.792l.097-.001.096.001c3.654 0 6.617-1.788 6.617-3.992 0-1.819-2.018-3.353-4.773-3.834-.018-.612-.73-1.116-1.665-1.216V1.811A.923.923 0 0 0 16.019 0L16 .002 15.98 0a.923.923 0 1 0-.257 1.811V3.75c-.934.1-1.646.604-1.664 1.215-2.756.482-4.773 2.016-4.773 3.835 0 2.204 2.963 3.992 6.618 3.992zm2.783-5.691a1.354 1.354 0 1 1 0 2.707 1.354 1.354 0 0 1 0-2.707zm-5.374 0a1.354 1.354 0 1 1 0 2.707 1.354 1.354 0 0 1 0-2.707z"/><circle cx="18.687" cy="8.455" r=".718"/><path d="M23.971 23.705h-.028v-.663h-.221v-9.504h-2.003v.332h-1.133v-.332h-9.173v.332H10.28v-.332H8.278v9.504h-.221v.663h-.341v1.824h.835v-.912h1.515v.912h.836v-1.824h-.4v-.663h-.222v-8.15h1.133v8.813h3.758v2.809c-3.353.239-5.932 1.689-5.932 3.444h.708c-.003.048-.007.097-.007.146 0 1.045.852 1.896 1.898 1.896s1.897-.852 1.897-1.896c0-.049-.004-.097-.007-.146h.405c-.003.048-.007.097-.007.146 0 1.039.839 1.883 1.875 1.896a1.899 1.899 0 0 0 1.875-1.896c0-.049-.003-.097-.008-.146h.406a1.761 1.761 0 0 0-.008.146c0 1.045.852 1.896 1.897 1.896s1.897-.852 1.897-1.896c0-.049-.005-.097-.009-.146h.708c0-1.755-2.58-3.205-5.932-3.444v-2.809h3.758v-8.813h1.133v8.15h-.221v.663h-.401v1.824h.836v-.912h1.515v.912h.836v-1.824h-.312zm-10.306-2.473h-.704V20.5h.705l-.001.732zm0-1.048h-.704v-.732h.705l-.001.732zm1.078 1.048h-.705V20.5h.705v.732zm0-1.048h-.705v-.732h.705v.732zm.421 1.048V20.5h.705v.732h-.705zm.705-1.048h-.705v-.732h.705v.732zm-2.798 9.92a1.234 1.234 0 1 1-2.459-.146h2.45c.006.048.009.097.009.146zm4.141 0c0 .672-.542 1.221-1.212 1.232a1.236 1.236 0 0 1-1.203-1.378H17.202c.006.048.01.097.01.146zm4.185 0a1.235 1.235 0 0 1-2.468 0c0-.049.003-.098.01-.146h2.448c.006.048.01.097.01.146zm-4.561-8.872h-.705V20.5h.705v.732zm0-1.048h-.705v-.732h.705v.732zm1.126 1.048h-.705V20.5h.705v.732zm0-1.048h-.705v-.732h.705v.732zm1.077 1.048h-.705V20.5h.705v.732zm0-1.048h-.705v-.732h.705v.732zm0-1.848H12.96v-2.579H19.039v2.579z"/></symbol><symbol id="robot-tool" viewBox="0 0 32 32"><path d="M12.999 17.073h5.507V13.62h-5.507v3.453zm3.733-2.991h1.357v2.529h-1.357v-2.529zm-1.659 0h1.358v2.529h-1.358v-2.529zm-1.613 0h1.358v2.529H13.46v-2.529zM10.347 25.57h3.532v1.359h-3.532zM13.879 28.7v-1.063h-3.532V28.7A3.743 3.743 0 0 0 8.37 32h7.486c0-1.428-.8-2.669-1.977-3.3zM18.55 25.57h3.531v1.359H18.55zM22.081 28.7v-1.063H18.55V28.7a3.743 3.743 0 0 0-1.977 3.3h7.487a3.743 3.743 0 0 0-1.979-3.3z"/><path d="M28.171 20.498l.001-.018c0-.558-.451-1.01-1.009-1.01h-.151V9.999c0-.622-.503-1.125-1.124-1.125H18.678V6.399h3.374A6.398 6.398 0 0 0 15.677.001V0h-.031v.001a6.398 6.398 0 0 0-6.373 6.398h3.714v2.475H6.109c-.621 0-1.125.503-1.125 1.125v9.472h-.15c-.558 0-1.009.452-1.009 1.01l.002.018a.8.8 0 0 0-.025.191v1.229a.812.812 0 1 0 1.623 0v-.43h1.322v.43a.813.813 0 0 0 1.623 0V20.69c0-.037-.006-.07-.01-.104.004-.035.01-.067.01-.104 0-.557-.452-1.008-1.009-1.008h-.127V11.38h1.377v8.83a1.61 1.61 0 0 0 1.611 1.611h.05v3.125h3.532V21.82h4.671v3.125h3.532V21.8a1.61 1.61 0 0 0 1.374-1.592v-8.83h1.384v8.093h-.127c-.557 0-1.008.452-1.008 1.01 0 .035.007.068.01.104-.004.035-.01.068-.01.104v1.229a.812.812 0 1 0 1.623 0v-.429h1.322v.429a.812.812 0 1 0 1.624 0v-1.229a.988.988 0 0 0-.028-.191zm-15.712-7.434h6.586v1.065c.188 0 .712-.056.712.437v1.65c0 .408-.494.368-.712.368v1.046h-6.586v-4.566z"/></symbol><symbol id="robot-with-a-gear" viewBox="0 0 32 32"><path d="M4.058 10.703c-.022-.022-.048-.04-.073-.059-.018-.024-.035-.049-.059-.072l-.774-.775a.722.722 0 1 0-1.021 1.023l.27.27-.832.833-.271-.271a.724.724 0 0 0-1.023 1.023l.774.774a.723.723 0 0 0 .137.105.899.899 0 0 0 1.281.012l1.592-1.593a.897.897 0 0 0-.001-1.27zM15.164 29.555a.874.874 0 0 0-.109-1.609.877.877 0 0 0 .589-.827c0-.386-.25-.71-.596-.829a.878.878 0 0 0-.285-1.71H14.2a.877.877 0 1 0-.285 1.71.877.877 0 0 0-.597.829c0 .384.247.707.59.827a.88.88 0 0 0-.59.828c0 .291.145.547.362.709a2.56 2.56 0 0 0-1.939 2.482h5.123a2.56 2.56 0 0 0-1.7-2.41zM21.714 29.518a.876.876 0 0 0-.229-1.535.877.877 0 0 0 .59-.827.88.88 0 0 0-.597-.83.877.877 0 0 0 .597-.829.882.882 0 0 0-.882-.882h-.562a.882.882 0 0 0-.881.882c0 .386.25.71.596.829a.88.88 0 0 0-.596.83.88.88 0 0 0 .588.827.878.878 0 0 0-.588.826.88.88 0 0 0 .48.782A2.56 2.56 0 0 0 18.531 32h5.123a2.556 2.556 0 0 0-1.94-2.482zM31.81 20.477l-.619-.904a.703.703 0 0 0-.114-.129c-.002-.004-.006-.008-.008-.014a.896.896 0 0 0-1.221-.248.798.798 0 0 0-.102-.207.888.888 0 0 0-.813-.382.889.889 0 0 0-.061-.896.893.893 0 0 0-.971-.355.891.891 0 0 0-.033-.947.888.888 0 0 0-.828-.379.892.892 0 0 0-.908-1.212.89.89 0 0 0-1.302-1.128l-.473.323a.892.892 0 1 0 .582 1.623.889.889 0 0 0 .062.896.89.89 0 0 0 .828.381.89.89 0 0 0 1.065 1.184.889.889 0 0 0 .034.948.894.894 0 0 0 .814.381.882.882 0 0 0 .216 1.064.9.9 0 0 0-.228 1.244c.019.026.04.047.062.071.014.028.025.056.045.083l.619.902a.72.72 0 0 0 1.004.188.725.725 0 0 0 .188-1.006l-.216-.315.972-.664.217.315a.723.723 0 0 0 1.004.188.723.723 0 0 0 .185-1.005zM10.771 13.815a.893.893 0 0 0-1.433 1.019.89.89 0 0 0-1.173.987c-.059-.008-.116-.018-.177-.018-.068 0-.136.01-.202.021a.886.886 0 0 0-1.275-.865.89.89 0 0 0-1.176-1.121.893.893 0 0 0-1.448-.992l-.401.404a.893.893 0 0 0 .969 1.459.892.892 0 0 0 .183.991.895.895 0 0 0 1.02.17.888.888 0 1 0 1.087 1.148c0 .013-.003.023-.003.037a1.25 1.25 0 0 0 2.5 0c0-.039-.009-.076-.012-.115a.89.89 0 0 0 .853-.229.892.892 0 0 0 .169-1.019.892.892 0 0 0 .925-1.471l-.406-.406zm-2.78 3.703a.466.466 0 1 1 0 0zM14.122 6.773v-.691a.607.607 0 0 0-.607-.607h-.692a.606.606 0 0 0-.606.607v.691c0 .335.271.608.606.608h.691a.609.609 0 0 0 .608-.608zM21.538 6.084v.691c0 .335.271.608.606.608h.691a.607.607 0 0 0 .606-.608v-.691a.606.606 0 0 0-.606-.607h-.691a.606.606 0 0 0-.606.607zM17.711 16.314a1.572 1.572 0 0 0-1.623 1.517 1.57 1.57 0 1 0 3.138.106 1.57 1.57 0 0 0-1.515-1.623zm-.073 2.166a.596.596 0 1 1 .04-1.191.596.596 0 0 1-.04 1.191z"/><path d="M22.416 12.292h-2.123a1.827 1.827 0 0 0-.013-1.268h1.517a1.24 1.24 0 0 0 1.24-1.24V8.623h.159c.821 0 1.488-.667 1.488-1.488v-1.41a1.49 1.49 0 0 0-1.488-1.488h-.254a1.236 1.236 0 0 0-1.146-.774h-2.179l.695-1.959c.021.002.042.006.063.006a.754.754 0 1 0-.414-.126l-.739 2.079H17.83V3.46h-1.394l-.737-2.078a.754.754 0 1 0-.415.126c.021 0 .042-.004.062-.007l.696 1.959h-2.181c-.52 0-.962.32-1.146.774h-.252c-.82 0-1.487.667-1.487 1.487v1.41c0 .82.667 1.487 1.487 1.487h.16V9.78c0 .685.555 1.24 1.238 1.24h1.517a1.818 1.818 0 0 0-.012 1.27h-2.465c-.685 0-1.239.555-1.239 1.24v9.202c0 .686.555 1.24 1.239 1.24h9.514c.685 0 1.239-.555 1.239-1.24V13.53a1.237 1.237 0 0 0-1.238-1.238zm1.771-6.567v1.41a.992.992 0 0 1-.992.992h-1.409a.992.992 0 0 1-.992-.992v-1.41c0-.547.444-.992.992-.992h1.409c.548 0 .992.445.992.992zM11.471 7.132v-1.41c0-.547.445-.991.992-.991h1.41c.546 0 .99.444.99.991v1.41a.991.991 0 0 1-.99.991h-1.41a.992.992 0 0 1-.992-.991zm5.011 1.193h1.348v.002h1.347c.517 0 .936.325.936.727 0 .401-.418.727-.936.727H17.83V9.78h-1.348c-.517 0-.936-.326-.936-.728 0-.401.419-.727.936-.727zm4.533 10.01a.15.15 0 0 1-.154.144l-.419-.014a2.867 2.867 0 0 1-.495 1.102l.285.306a.148.148 0 0 1-.007.21l-.517.482c-.028.027-.067.043-.107.041s-.077-.019-.104-.047l-.277-.298a2.854 2.854 0 0 1-1.155.448l-.014.413a.15.15 0 0 1-.154.144l-.707-.022a.153.153 0 0 1-.145-.154l.014-.401a2.854 2.854 0 0 1-1.14-.508l-.278.26a.149.149 0 0 1-.211-.006l-.483-.519a.152.152 0 0 1 .009-.21l.271-.254a2.883 2.883 0 0 1-.448-1.18l-.355-.012a.15.15 0 0 1-.145-.154l.023-.707a.15.15 0 0 1 .154-.144l.356.013c.089-.418.271-.812.533-1.152l-.247-.265c-.025-.028-.041-.066-.04-.106s.019-.077.047-.104l.518-.484a.15.15 0 0 1 .21.007l.254.273c.354-.225.752-.37 1.165-.424l.013-.363a.15.15 0 0 1 .153-.144l.708.024a.149.149 0 0 1 .143.154l-.012.375c.404.09.785.268 1.114.52l.291-.271a.14.14 0 0 1 .106-.04c.04.001.077.018.104.047l.482.518a.147.147 0 0 1-.007.21l-.297.276c.221.348.366.738.424 1.142l.418.015a.15.15 0 0 1 .145.153l-.022.706z"/></symbol><symbol id="robot-with-flexible-arms-and-legs" viewBox="0 0 35.669 35.669"><path d="M13.527 26.663h2.203a.66.66 0 0 0 .66-.66v-.339a.66.66 0 0 0-.66-.66h-2.203a.66.66 0 0 0-.66.66v.339c0 .364.295.66.66.66zM12.867 27.945c0 .365.295.66.66.66h2.203a.66.66 0 0 0 .66-.66v-.338a.66.66 0 0 0-.66-.66h-2.203a.66.66 0 0 0-.66.66v.338zM12.867 29.878c0 .364.295.66.66.66h2.203a.66.66 0 0 0 .66-.66v-.338a.66.66 0 0 0-.66-.661h-2.203a.66.66 0 0 0-.66.661v.338zM12.867 31.82c0 .365.295.66.66.66h2.203a.66.66 0 0 0 .66-.66v-.338a.661.661 0 0 0-.66-.662h-2.203a.661.661 0 0 0-.66.662v.338zM10.396 13.707H8.783a.746.746 0 0 0-.746.746v.383c0 .413.334.747.746.747h1.614a.746.746 0 0 0 .746-.747v-.383a.746.746 0 0 0-.747-.746zM10.396 15.904H8.783a.747.747 0 0 0-.746.747v.383c0 .413.334.747.746.747h1.614a.746.746 0 0 0 .746-.747v-.383a.747.747 0 0 0-.747-.747zM10.396 18.09H8.783a.746.746 0 0 0-.746.746v.382c0 .413.334.747.746.747h1.614a.746.746 0 0 0 .746-.747v-.382a.746.746 0 0 0-.747-.746zM10.396 20.287H8.783a.747.747 0 0 0-.746.747v.382c0 .413.334.747.746.747h1.614a.746.746 0 0 0 .746-.747v-.382a.747.747 0 0 0-.747-.747zM15.373 32.936h-1.49c-1.135 0-2.055.92-2.055 2.056v.678h5.599v-.68a2.053 2.053 0 0 0-2.054-2.054z"/><circle cx="9.632" cy="23.767" r="1.237"/><path d="M10.251 1.075a.534.534 0 0 0 .121-.014l2.86 4.256c-.41.358-.671.884-.671 1.471v2.54c0 1.078.875 1.953 1.954 1.953H21.152a1.952 1.952 0 0 0 1.952-1.953v-2.54c0-.587-.26-1.113-.67-1.471l2.859-4.256a.534.534 0 0 0 .658-.524C25.954.241 25.712 0 25.416 0a.539.539 0 0 0-.496.745l-2.891 4.3a1.942 1.942 0 0 0-.877-.209H14.516c-.316 0-.613.077-.876.209l-2.891-4.3a.537.537 0 1 0-.498.33zm9.537 6.282a.896.896 0 1 1 0 1.792.896.896 0 0 1 0-1.792zm-3.909 0a.896.896 0 1 1 0 1.792.896.896 0 0 1 0-1.792zM19.542 19.896a.226.226 0 0 1-.155.063.219.219 0 0 1-.154-.374l.391-.391a2.829 2.829 0 0 0-1.589-.637v.59a.219.219 0 0 1-.199.218v.001h-.003v-.001a.219.219 0 0 1-.199-.218v-.59c-.6.045-1.149.275-1.588.637l.391.391a.222.222 0 0 1 0 .311.226.226 0 0 1-.156.063.221.221 0 0 1-.155-.063l-.395-.396a2.833 2.833 0 0 0-.727 1.894h2.628v-.729c0-.114.087-.207.199-.217v-.001h.003v.001c.112.01.199.103.199.217v.729h2.629c0-.728-.276-1.39-.726-1.894l-.394.396z"/><path d="M22.203 11.94h-8.738a1.953 1.953 0 0 0-1.953 1.953v8.864c0 1.079.874 1.954 1.953 1.954h8.737a1.953 1.953 0 0 0 1.953-1.954v-8.864a1.952 1.952 0 0 0-1.952-1.953zm-2.415 1.559a.506.506 0 1 1-.001 1.011.506.506 0 0 1 .001-1.011zm0 1.281a.506.506 0 0 1 0 1.01.506.506 0 0 1 0-1.01zm-2.9-.838c0-.212.172-.383.384-.383h1.125c.213 0 .384.171.384.383v1.406a.383.383 0 0 1-.384.384h-1.125a.384.384 0 0 1-.384-.384v-1.406zm-1.009-.444a.506.506 0 1 1-.001 1.011.506.506 0 0 1 .001-1.011zm0 1.282a.506.506 0 1 1-.001 1.011.506.506 0 0 1 .001-1.011zm-1.407-1.282a.506.506 0 1 1-.001 1.011.506.506 0 0 1 .001-1.011zm-.506 1.788a.506.506 0 1 1 1.011.001.506.506 0 0 1-1.011-.001zm7.469 6.975H14.231a3.73 3.73 0 0 1 3.601-4.591h.003a3.73 3.73 0 0 1 3.704 3.725 3.7 3.7 0 0 1-.104.866zm-.238-6.47a.506.506 0 1 1 0-1.011.506.506 0 0 1 0 1.011zm0-1.282a.506.506 0 1 1 0-1.011.506.506 0 0 1 0 1.011zM19.937 26.663h2.203a.661.661 0 0 0 .662-.66v-.339a.662.662 0 0 0-.662-.66h-2.203a.66.66 0 0 0-.66.66v.339c0 .364.296.66.66.66zM19.277 27.945c0 .365.296.66.66.66h2.203a.661.661 0 0 0 .662-.66v-.338a.661.661 0 0 0-.662-.66h-2.203a.66.66 0 0 0-.66.66v.338zM19.277 29.878c0 .364.296.66.66.66h2.203a.662.662 0 0 0 .662-.66v-.338a.662.662 0 0 0-.662-.661h-2.203a.66.66 0 0 0-.66.661v.338zM19.277 31.82c0 .365.296.66.66.66h2.203a.661.661 0 0 0 .662-.66v-.338a.663.663 0 0 0-.662-.662h-2.203a.662.662 0 0 0-.66.662v.338zM26.884 13.707h-1.613a.746.746 0 0 0-.746.746v.383c0 .413.334.747.746.747h1.613a.747.747 0 0 0 .748-.747v-.383a.746.746 0 0 0-.748-.746zM26.884 15.904h-1.613a.746.746 0 0 0-.746.747v.383c0 .413.334.747.746.747h1.613a.747.747 0 0 0 .748-.747v-.383a.747.747 0 0 0-.748-.747zM26.884 18.09h-1.613a.746.746 0 0 0-.746.747v.382c0 .413.334.747.746.747h1.613a.747.747 0 0 0 .748-.747v-.382a.747.747 0 0 0-.748-.747zM26.884 20.287h-1.613a.747.747 0 0 0-.746.747v.382c0 .413.334.747.746.747h1.613a.747.747 0 0 0 .748-.747v-.382a.747.747 0 0 0-.748-.747zM21.785 32.936h-1.49c-1.135 0-2.055.92-2.055 2.056v.678h5.599v-.68a2.055 2.055 0 0 0-2.054-2.054z"/><circle cx="26.036" cy="23.767" r="1.237"/></symbol><symbol id="robot-with-gears" viewBox="0 0 32 32"><path d="M13.262 5.405h.896v.84h-.896z"/><path d="M25.458 19.341c.022-1.147-.063-4.707-1.877-6.73-.789-.879-1.788-1.367-2.974-1.454a1.057 1.057 0 0 0-.139-.01h-2.654V9.802h1.234a1.12 1.12 0 0 0 1.121-1.121v-.423a1.728 1.728 0 0 0 1.375-1.705c0-.847-.593-1.551-1.375-1.705v-.647c0-.619-.502-1.121-1.121-1.121h-2.773V1.574a.827.827 0 1 0-.708 0V3.08h-2.772c-.619 0-1.121.502-1.121 1.121v.648A1.727 1.727 0 0 0 10.3 6.553c0 .846.593 1.551 1.375 1.705v.424a1.12 1.12 0 0 0 1.121 1.121h1.234v1.344h-2.467l-.035.002v-.002c-1.246.057-2.294.55-3.113 1.464-1.813 2.023-1.9 5.583-1.876 6.73-.993.31-1.708 1.156-1.708 2.152 0 .019.003.037.004.056h1.347c-.002-.019-.005-.037-.005-.056 0-.515.531-.935 1.186-.935.653 0 1.186.418 1.186.935 0 .019-.004.037-.005.056H9.89c.001-.019.003-.037.003-.056 0-.907-.593-1.688-1.446-2.056-.047-1.194.113-4.136 1.39-5.558.185-.205.387-.371.607-.5v7.542c0 .618.501 1.12 1.121 1.12h.352v1.177h2.415v-1.177h3.397v1.177h2.414v-1.177h.328a1.12 1.12 0 0 0 1.121-1.12v-7.58c.19.128.362.305.571.538 1.276 1.422 1.438 4.363 1.39 5.558-.854.367-1.445 1.148-1.445 2.056 0 .019.002.037.004.056h1.346c-.002-.019-.005-.037-.005-.056 0-.515.532-.935 1.185-.935.654 0 1.188.418 1.188.935 0 .019-.004.037-.006.056h1.347c.001-.019.004-.037.004-.056-.005-.997-.72-1.843-1.713-2.152zM17.231 7.926v.7h-2.617v-.7h2.617zm-.123-3.081h2.091v1.941h-2.091V4.845zm-4.462 1.942V4.845h2.091v1.941l-2.091.001zm6.413 5.926l1.082 1.081a.783.783 0 0 1-1.082-1.081zm0 2.27l1.082 1.082a.784.784 0 0 1-1.082-1.082zm0 2.378l1.082 1.082a.784.784 0 0 1-1.082-1.082zm-5.137-.35l-.008.234a.085.085 0 0 1-.088.082l-.402-.015a.084.084 0 0 1-.082-.086l.008-.229a1.653 1.653 0 0 1-.648-.289l-.158.146a.083.083 0 0 1-.12-.004l-.275-.293a.088.088 0 0 1 .004-.119l.155-.146a1.626 1.626 0 0 1-.254-.669l-.203-.007a.085.085 0 0 1-.082-.087l.013-.402a.086.086 0 0 1 .088-.082l.204.007c.05-.238.154-.462.302-.656l-.14-.15a.085.085 0 0 1-.022-.061c0-.022.01-.043.027-.059l.294-.275a.085.085 0 0 1 .12.004l.145.156c.024-.015.048-.028.073-.041.183-.104.382-.173.589-.201l.007-.206a.084.084 0 0 1 .087-.082l.402.014a.084.084 0 0 1 .082.087l-.007.213c.23.051.446.153.634.296l.163-.154a.086.086 0 0 1 .12.005l.274.294a.085.085 0 0 1-.004.12l-.168.158c.126.196.208.418.241.648l.238.008a.084.084 0 0 1 .082.087l-.013.402a.086.086 0 0 1-.088.082l-.238-.007a1.622 1.622 0 0 1-.281.625l.162.173a.082.082 0 0 1-.004.118l-.294.275a.079.079 0 0 1-.06.022.09.09 0 0 1-.06-.027l-.157-.168a1.603 1.603 0 0 1-.658.259zm4.607 1.824a.087.087 0 0 1-.089.082l-.237-.008a1.627 1.627 0 0 1-.282.626l.162.173a.085.085 0 0 1-.004.12l-.294.275a.092.092 0 0 1-.062.022.102.102 0 0 1-.059-.026l-.158-.168a1.652 1.652 0 0 1-.656.254l-.008.234a.086.086 0 0 1-.089.082l-.401-.013a.088.088 0 0 1-.083-.089l.008-.228a1.616 1.616 0 0 1-.479-.181 1.398 1.398 0 0 1-.17-.109l-.158.149a.083.083 0 0 1-.119-.005l-.275-.295a.086.086 0 0 1 .004-.118l.155-.146a1.621 1.621 0 0 1-.255-.67l-.2-.007a.086.086 0 0 1-.082-.088l.014-.402a.085.085 0 0 1 .088-.082l.203.007a1.64 1.64 0 0 1 .303-.656l-.14-.148a.083.083 0 0 1-.022-.061c0-.022.01-.045.026-.06l.294-.274a.086.086 0 0 1 .12.004l.146.154c.023-.015.048-.026.072-.041.182-.103.382-.172.589-.201l.007-.205a.086.086 0 0 1 .088-.082l.403.014a.084.084 0 0 1 .08.087l-.007.213c.229.052.446.153.634.296l.166-.156a.088.088 0 0 1 .121.006l.274.294a.087.087 0 0 1-.004.12l-.168.158c.125.196.207.418.24.647l.238.008a.085.085 0 0 1 .082.089l-.016.405zm1.19 2.002a.784.784 0 0 1-.66-1.205l1.082 1.081a.782.782 0 0 1-.422.124zm.658-.36l-1.081-1.082a.784.784 0 0 1 1.206.658.781.781 0 0 1-.125.424zm0-2.272l-1.081-1.081a.784.784 0 0 1 1.206.659c0 .156-.046.3-.125.422zm0-2.378l-1.081-1.082a.784.784 0 0 1 1.206.659.773.773 0 0 1-.125.423zm0-2.27l-1.081-1.081a.784.784 0 0 1 1.206.659c0 .156-.046.3-.125.422z"/><path d="M13.722 14.513a.894.894 0 1 0-.06 1.787.894.894 0 0 0 .06-1.787zm-.042 1.231a.339.339 0 1 1 .023-.677.339.339 0 0 1-.023.677zM16.65 17.688a.891.891 0 0 0-.85 1.246.892.892 0 0 0 1.712-.322.892.892 0 0 0-.862-.924zm-.043 1.23a.338.338 0 1 1 .024-.676.338.338 0 0 1-.024.676zM13.104 23.506c-.238 0-.458.071-.643.189l1.648 1.648a1.19 1.19 0 0 0-1.005-1.837zM11.91 24.701a1.195 1.195 0 0 0 1.837 1.006L12.1 24.061c-.12.183-.19.403-.19.64zM11.915 26.328h2.415v1.512h-2.415zM14.33 29.479v-1.107h-2.415v1.107A2.798 2.798 0 0 0 10.325 32h5.595a2.8 2.8 0 0 0-1.59-2.521zM18.917 23.506c-.238 0-.457.071-.643.189l1.647 1.648c.119-.186.188-.406.188-.644a1.19 1.19 0 0 0-1.192-1.193zM17.721 24.701a1.194 1.194 0 0 0 1.838 1.006l-1.646-1.646a1.157 1.157 0 0 0-.192.64zM17.727 26.328h2.414v1.512h-2.414zM20.141 29.479v-1.107h-2.414v1.107A2.797 2.797 0 0 0 16.138 32h5.595a2.801 2.801 0 0 0-1.592-2.521zM17.686 5.405h.896v.84h-.896z"/></symbol><symbol id="robot-with-lifeline" viewBox="0 0 35.805 35.805"><path d="M16.141 27.205h-3.51c-.581 0-1.052.471-1.052 1.052v.539c0 .581.471 1.052 1.052 1.052h3.51c.581 0 1.052-.472 1.052-1.052v-.539c0-.581-.471-1.052-1.052-1.052zM14.608 12.714H21.245a1.954 1.954 0 0 0 1.953-1.954V8.221a1.953 1.953 0 0 0-1.953-1.953h-.858a1.058 1.058 0 0 0-.931-.555h-.625a.56.56 0 0 0-.539-.406h-.243V1.335A.685.685 0 0 0 17.842 0a.684.684 0 0 0-.208 1.336v3.972h-.089a.562.562 0 0 0-.54.406h-.364c-.401 0-.751.225-.931.555h-1.102a1.953 1.953 0 0 0-1.953 1.953v2.539c0 1.078.874 1.953 1.953 1.953zm5.273-4.021a.896.896 0 1 1 0 1.792.896.896 0 0 1 0-1.792zm-3.908 0a.896.896 0 1 1 0 1.792.896.896 0 0 1 0-1.792zM22.288 12.984H13.551a1.953 1.953 0 0 0-1.953 1.953v6.813c0 1.078.874 1.953 1.953 1.953H22.288a1.954 1.954 0 0 0 1.953-1.953v-6.813a1.953 1.953 0 0 0-1.953-1.953zm-8.028 1.618h7.317c.461 0 .834.373.834.833v2.074h-1.424l-.377-.749a.109.109 0 0 0-.098-.058.105.105 0 0 0-.095.062l-.347.745h-2.324l-.158-.311a.108.108 0 0 0-.098-.058.106.106 0 0 0-.094.065l-.344.833-.317-1.385a.106.106 0 0 0-.103-.082h-.002a.105.105 0 0 0-.103.083l-.486 2.273-.59-3.527a.106.106 0 0 0-.204-.018l-.756 2.127h-1.064v-2.074c0-.46.373-.833.833-.833zm-.194 7.753a.64.64 0 1 1 .001-1.28.64.64 0 0 1-.001 1.28zm1.546 0a.64.64 0 1 1 .001-1.28.64.64 0 0 1-.001 1.28zm5.965-2.046H14.26a.833.833 0 0 1-.833-.834V17.72h1.139a.106.106 0 0 0 .1-.07l.644-1.813.616 3.673a.104.104 0 0 0 .102.088h.002c.05 0 .093-.035.104-.084l.502-2.348.285 1.243c.01.045.048.077.095.082a.104.104 0 0 0 .106-.065l.384-.926.083.163a.105.105 0 0 0 .094.058h2.458a.107.107 0 0 0 .097-.061l.281-.608.309.611a.106.106 0 0 0 .095.058h1.489v1.753a.835.835 0 0 1-.835.835zM9.641 13.06c-.854 0-1.546.692-1.546 1.547v7.474a1.546 1.546 0 1 0 3.093 0v-7.474c0-.855-.693-1.547-1.547-1.547zM26.163 13.06c-.854 0-1.545.692-1.545 1.547v7.474a1.545 1.545 0 1 0 3.092 0v-7.474c0-.855-.692-1.547-1.547-1.547zM14.349 30.197a2.804 2.804 0 1 0 0 5.608 2.804 2.804 0 0 0 0-5.608zm0 3.725a.922.922 0 1 1 0-1.843.922.922 0 0 1 0 1.843zM16.141 24.127h-3.51c-.581 0-1.052.471-1.052 1.053v.539c0 .581.471 1.051 1.052 1.051h3.51c.581 0 1.052-.471 1.052-1.051v-.539c0-.582-.471-1.053-1.052-1.053zM23.168 27.205h-3.511c-.58 0-1.051.471-1.051 1.052v.539c0 .581.471 1.052 1.051 1.052h3.511c.581 0 1.052-.472 1.052-1.052v-.539c0-.581-.471-1.052-1.052-1.052zM21.376 30.197a2.803 2.803 0 1 0 .001 5.609 2.803 2.803 0 0 0-.001-5.609zm0 3.725a.921.921 0 1 1 0-1.844.922.922 0 1 1 0 1.844zM23.168 24.127h-3.511c-.58 0-1.051.471-1.051 1.053v.539a1.05 1.05 0 0 0 1.051 1.051h3.511c.581 0 1.052-.471 1.052-1.051v-.539c0-.582-.471-1.053-1.052-1.053z"/></symbol><symbol id="robot" viewBox="0 0 32 32"><path d="M13.961 29.827v-2.62l-.188-.169a1.601 1.601 0 0 1-.777.252l-.089.002c-.303 0-.586-.086-.829-.231v2.643a2.43 2.43 0 0 0-1.64 2.297h4.866c0-.952-.547-1.774-1.343-2.174z"/><circle cx="13.921" cy="6.29" r=".577"/><path d="M14.147 25.617a1.242 1.242 0 0 0-1.974-.934l1.809 1.621c.117-.202.178-.438.165-.687zM11.667 25.752a1.242 1.242 0 0 0 1.873 1.001l-1.764-1.58c-.08.177-.121.373-.109.579zM19.922 29.701v-2.643a1.605 1.605 0 0 1-1.695-.022l-.188.169v2.62a2.432 2.432 0 0 0-1.344 2.173h4.865a2.433 2.433 0 0 0-1.638-2.297z"/><circle cx="18.077" cy="6.288" r=".577"/><path d="M17.852 25.615c-.014.25.047.484.164.687l1.81-1.62a1.24 1.24 0 0 0-1.974.933zM20.332 25.751a1.228 1.228 0 0 0-.109-.58l-1.764 1.58a1.242 1.242 0 0 0 1.873-1zM8.818 17.059a1.232 1.232 0 0 0-1.955-.927l1.793 1.607c.115-.2.176-.434.162-.68zM7.656 18.355c.204-.012.394-.073.559-.17l-1.748-1.567a1.232 1.232 0 0 0 1.189 1.737zM23.18 17.059c-.014.246.047.48.162.681l1.795-1.606a1.23 1.23 0 0 0-1.957.925zM24.342 18.355a1.23 1.23 0 0 0 1.19-1.737l-1.749 1.567c.165.097.354.159.559.17z"/><path d="M24.498 15.521c.231.013.451.075.651.178-.545-1.917-2.103-3.517-3.375-3.622l-3.325-.006V10.8h1.618s1.677-7.21 0-7.21h-1.704c-.234-.319-.934-.569-1.816-.649.177-.5.653-1.583 1.556-1.957a.79.79 0 1 0 .044-.515c-1.331.379-1.924 1.928-2.088 2.447l-.062-.001v.001l-.058.001C15.776 2.399 15.182.85 13.851.47a.788.788 0 0 0-1.51.322.787.787 0 1 0 1.552.196c.903.374 1.379 1.457 1.556 1.956-.884.08-1.583.33-1.817.648h-1.703c-1.678 0 0 7.21 0 7.21h1.619v1.271l-3.326.004c-1.271.105-2.829 1.706-3.374 3.622a1.6 1.6 0 0 1 1.875.294c.389-1.11 1.258-1.939 1.622-2.035l.514 7.86h1.216v2.49c.223-.135.475-.214.742-.228.436-.024.838.128 1.142.394v-2.656h2.04v-.002h2.037v2.656a1.597 1.597 0 0 1 1.884-.166v-2.49h1.215l.515-7.857c.364.096 1.233.925 1.622 2.035a1.605 1.605 0 0 1 1.226-.473zm-8.501-6.928h1.502v.941H16v.002h-1.502v-.941h1.499v-.002zm3.355-2.305a1.274 1.274 0 1 1-2.549.001 1.274 1.274 0 0 1 2.549-.001zm-6.706.002a1.275 1.275 0 1 1 2.55 0 1.275 1.275 0 0 1-2.55 0zm7.514 13.915h-7.818v-.402h7.818v.402zm0-1.119h-7.818v-.402h7.818v.402zm0-1.104h-7.818v-.401h7.818v.401zm0-1.118h-7.818v-.402h7.818v.402zm0-1.118h-7.818v-.402h7.818v.402zm0-1.059h-7.818v-.402h7.818v.402zM9.502 22.318a.853.853 0 0 0-.853-.854h-.118v-2.918l-.077-.068c-.226.146-.49.236-.777.252-.03.002-.059.002-.089.002-.351 0-.675-.113-.941-.307v3.038h-.136a.852.852 0 0 0-.855.853c0 .029.006.059.009.088-.003.029-.009.058-.009.088v1.04a.686.686 0 1 0 1.373.001v-.363l1.119.001v.363a.687.687 0 1 0 1.374 0l.001-1.04a.666.666 0 0 0-.021-.162v-.014zM26.342 22.492c.002-.03-.004-.059-.009-.088.003-.029.009-.059.009-.088a.852.852 0 0 0-.854-.854h-.137v-3.038a1.59 1.59 0 0 1-.939.308c-.029 0-.061 0-.089-.002a1.6 1.6 0 0 1-.776-.252l-.076.067v2.918h-.121a.855.855 0 0 0-.852.869.726.726 0 0 0-.021.162l.002 1.04a.688.688 0 0 0 1.374 0v-.363l1.119-.001v.363a.686.686 0 1 0 1.374-.001l-.004-1.04z"/></symbol><symbol id="rounded-robot-design-with-spirals-arms" viewBox="0 0 32 32"><circle cx="13.94" cy="7.853" r=".887"/><path d="M17.207 17.53a1.526 1.526 0 1 0-.105 3.051 1.526 1.526 0 0 0 .105-3.051zm-.073 2.105a.582.582 0 0 1-.56-.599.58.58 0 1 1 .56.599z"/><path d="M26.571 20.823l.052-.12c.358-.809.698-1.574.776-2.622.047-.64-.328-1.347-.892-1.679-.01-.006-.019-.01-.028-.017.002-.067.002-.138.002-.209-.006-.697-.271-1.149-.858-1.466a2.186 2.186 0 0 0-.313-.14 2.865 2.865 0 0 0-.689-.862c-.245-.209-.735-.553-1.252-.509-.396.033-.795.25-1.146.44a8.05 8.05 0 0 1-.196.105 2.611 2.611 0 0 0-.209.125 6.528 6.528 0 0 0-.484-.486c1.072-.694 1.906-1.648 2.376-2.756.933-.079 1.672-1.158 1.672-2.48 0-1.375-.798-2.489-1.783-2.489-.097 0-.192.014-.286.035-1.149-1.862-3.396-3.138-5.988-3.188v-1.27h.613V0H16.312v1.235h.614v1.27c-2.594.051-4.838 1.327-5.989 3.188a1.356 1.356 0 0 0-.286-.034c-.985 0-1.782 1.114-1.782 2.489 0 1.323.739 2.402 1.671 2.48.47 1.108 1.305 2.062 2.376 2.756a7.148 7.148 0 0 0-.308.296c-.653-.18-1.332-.308-2.068-.179-.522.092-2.11.373-2.619 1.532a2.02 2.02 0 0 0-.067 1.468 2.558 2.558 0 0 0-.775.854c-.221.416-.259.848-.123 1.248-.713.541-.931 1.547-.992 2.273a2.202 2.202 0 0 0-1.709 2.117h.965c.014-.667.559-1.206 1.229-1.206s1.216.539 1.229 1.206h.965a2.196 2.196 0 0 0-2.067-2.165c.057-.568.224-1.285.686-1.688.11.135.243.265.398.383.176.136.712.545 1.314.24.417-.209.631-.535.577-.869a.708.708 0 0 0-.301-.47c-.494-.344-1.412-.181-1.515-.161a2.333 2.333 0 0 0-.233.061.979.979 0 0 1 .111-.686 1.87 1.87 0 0 1 .537-.602c.332.411.834.632 1.392.617.442-.014.957-.24 1.176-.573a8.558 8.558 0 0 0-.283 2.188c0 2.955 1.484 5.51 3.641 6.729v4.121a1.987 1.987 0 0 0-1.351 1.881h3.978c0-.932-.641-1.711-1.507-1.927v-3.587a5.69 5.69 0 0 0 1.733.271c.066 0 .132-.003.196-.006.064.002.13.006.195.006.601 0 1.181-.096 1.732-.271v3.587a1.987 1.987 0 0 0-1.507 1.927h3.978c0-.875-.564-1.615-1.35-1.882v-4.121c2.156-1.22 3.641-3.772 3.641-6.728 0-1.071-.197-2.09-.549-3.012a.886.886 0 0 0 .213.162c.348.194.875.217 1.2.055.423-.211.741-.692.789-1.155.293.196.407.444.411.864v.029a1.215 1.215 0 0 0-.7.204c-.345.226-.886.769-.725 1.376.086.326.317.539.633.585.378.056.81-.153 1.01-.483.142-.23.244-.504.308-.819.258.249.418.624.394.959-.069.944-.374 1.629-.726 2.423l-.071.16a2.195 2.195 0 0 0-2.579 1.617l.939.223a1.23 1.23 0 0 1 2.392.566l.938.223a2.192 2.192 0 0 0-1.12-2.422zM7.849 18.855c.364-.068.872-.063 1.056.064.042.03.049.053.053.073.005.032-.08.146-.255.233-.131.066-.313.096-.676-.182a1.904 1.904 0 0 1-.208-.184c.009.002.018-.002.03-.004zm1.673-1.804a1.087 1.087 0 0 1-.838-.318c.417-.172.882-.229 1.297-.092.142.047.206.09.233.113-.068.105-.388.288-.692.297zm1.304-.345c-.012-.196-.136-.466-.655-.638-.591-.196-1.227-.114-1.779.129a1.424 1.424 0 0 1 .083-.921c.255-.582.965-.968 2.171-1.181.521-.091 1.017-.028 1.516.092a7.807 7.807 0 0 0-1.336 2.519zm4.913-6.069h2.742v1.326h-2.742v-1.326zm-3.306-2.784a1.507 1.507 0 1 1 3.015 0 1.507 1.507 0 0 1-3.015 0zm7.985 11.641a.144.144 0 0 1-.15.139l-.406-.014a2.832 2.832 0 0 1-.481 1.07l.276.297c.055.06.052.15-.006.205l-.504.471a.148.148 0 0 1-.206-.006l-.269-.288a2.827 2.827 0 0 1-1.124.437l-.013.399a.145.145 0 0 1-.15.14l-.688-.023a.142.142 0 0 1-.139-.149l.012-.389a2.81 2.81 0 0 1-1.107-.495l-.27.253a.146.146 0 0 1-.205-.007l-.47-.504a.148.148 0 0 1 .007-.204l.265-.246a2.792 2.792 0 0 1-.435-1.147l-.347-.012a.147.147 0 0 1-.14-.15l.023-.688a.144.144 0 0 1 .15-.139l.347.012c.086-.408.264-.792.518-1.122l-.239-.257a.145.145 0 0 1 .007-.205l.502-.47a.146.146 0 0 1 .205.006l.248.266c.344-.219.73-.359 1.132-.412l.013-.353a.143.143 0 0 1 .148-.14l.688.024c.08.002.144.07.141.149l-.014.365c.394.088.765.262 1.084.506l.283-.264a.147.147 0 0 1 .205.006l.471.504a.144.144 0 0 1-.008.205l-.287.27c.215.336.355.715.412 1.109l.406.014c.08.002.143.07.141.15l-.026.687zm-.245-10.133a1.508 1.508 0 1 1 0-3.016 1.508 1.508 0 0 1 0 3.016zm2.89 6.411a7.636 7.636 0 0 0-.858-1.434c.036-.022.069-.042.099-.057l.207-.111c.299-.163.639-.347.91-.37.209-.017.521.123.809.368.115.098.221.207.312.32a1.627 1.627 0 0 0-.427.127c-.184.082-1.064.51-1.052 1.157zm1.346.164c-.133.068-.448.064-.637-.041-.104-.058-.107-.109-.109-.126-.014-.145.326-.438.695-.603a.976.976 0 0 1 .5-.085c.006.031.01.062.014.09.019.274-.198.633-.463.765zm1.174 1.647a.47.47 0 0 1-.409.201c-.054-.009-.106-.031-.137-.144-.058-.216.2-.541.473-.719a.609.609 0 0 1 .329-.107 2.07 2.07 0 0 1-.256.769z"/><circle cx="20.173" cy="7.853" r=".887"/></symbol><symbol id="short-robot" viewBox="0 0 32 32"><path d="M16.128 10.568h5.61v-2.07a3.601 3.601 0 0 0-2.621-3.466.966.966 0 0 0-.818-1.487.968.968 0 0 0-.889 1.352l-2.584.001a.968.968 0 1 0-1.705.138A3.601 3.601 0 0 0 10.5 8.501v2.071h5.628v-.004zM29.971 21.919c.027-1.365-.074-5.597-2.23-8.002a5.077 5.077 0 0 0-3.333-1.711c-.689-.79-1.776-1.277-2.892-1.277l-10.79.003c-1.104 0-2.179.477-2.869 1.251-1.435.091-2.645.673-3.595 1.734-2.157 2.405-2.259 6.637-2.232 8.002C.85 22.287 0 23.293 0 24.477c0 .023.003.045.004.067h1.601c-.002-.022-.006-.044-.006-.067 0-.611.633-1.109 1.41-1.109.777 0 1.41.498 1.41 1.109 0 .023-.004.045-.006.067h1.601c0-.022.004-.044.004-.067 0-1.078-.705-2.008-1.719-2.442-.057-1.421.134-4.917 1.652-6.609a2.873 2.873 0 0 1 1.187-.81c.286 1.999.762 2.959 1.479 4.522.356.776.692 1.516 1.113 2.109h-.01v3.7a3.518 3.518 0 0 0-3.787 3.509h7.037c0-.908-.345-1.736-.91-2.36v-2.98h1.081v-.528l5.957-.002v.526h1.08v2.98a3.51 3.51 0 0 0-.91 2.36h7.037a3.52 3.52 0 0 0-3.788-3.509v-3.7h-.007c.422-.594.758-1.333 1.113-2.109.706-1.539 1.178-2.495 1.466-4.429.356.164.677.402.961.719 1.519 1.69 1.709 5.188 1.652 6.608-1.015.437-1.72 1.367-1.72 2.443 0 .023.004.045.004.067h1.602c-.002-.022-.006-.044-.006-.067 0-.611.633-1.109 1.41-1.109s1.408.498 1.408 1.109c0 .023-.004.045-.006.067h1.602c0-.022.004-.044.004-.067 0-1.182-.85-2.188-2.029-2.556zm-13.843-5.274v.004h-5.747v-.735h5.729v-.003h5.748v.734h-5.73zm4.679 1.172v.734h-4.679v.003h-4.695v-.735h4.678v-.002h4.696zm-4.679 2.748h-3.751v-.735h3.734v-.004h3.75v.735h-3.733v.004zm6.933-5.877h-6.933v.003H9.18v-.735h6.931v-.003h6.949v.735z"/></symbol><symbol id="small-robot-with-arms-and-legs" viewBox="0 0 32 32"><path d="M29.857 19.727c.029-1.441-.08-5.909-2.354-8.448-.946-1.055-2.134-1.661-3.535-1.808a2.639 2.639 0 0 0-2.514-1.838h-.038V5.838a3.585 3.585 0 0 0-3.585-3.585L16 2.252l-1.832.001a3.585 3.585 0 0 0-3.584 3.585v1.794h-.038A2.64 2.64 0 0 0 8.031 9.47c-1.4.147-2.588.754-3.533 1.808-2.276 2.54-2.385 7.006-2.356 8.447C.898 20.113 0 21.176 0 22.426c0 .024.003.047.004.071h1.689c-.001-.022-.006-.047-.006-.071 0-.646.667-1.171 1.487-1.171.821 0 1.489.524 1.489 1.171 0 .024-.005.047-.007.071h1.689c0-.022.005-.047.005-.071 0-1.137-.744-2.119-1.815-2.578-.06-1.5.142-5.19 1.744-6.977a2.995 2.995 0 0 1 1.627-.962v7.181a2.64 2.64 0 0 0 2.639 2.641h.521v2.039c-.376.293-.613.713-.613 1.181 0 .467.236.887.613 1.182v3.616h2.391V26.26c.482-.292.797-.769.797-1.309s-.315-1.017-.797-1.31v-1.91h5.085v1.91c-.481.293-.797.77-.797 1.31s.315 1.017.797 1.309v3.489h2.392v-3.616c.375-.295.612-.715.612-1.182 0-.468-.237-.888-.612-1.181v-2.04h.521a2.64 2.64 0 0 0 2.639-2.641v-7.181a2.997 2.997 0 0 1 1.628.962c1.603 1.785 1.805 5.476 1.743 6.977-1.071.459-1.815 1.441-1.815 2.578 0 .024.004.047.006.071h1.689c-.002-.022-.007-.047-.007-.071 0-.646.668-1.171 1.489-1.171.82 0 1.488.524 1.488 1.171 0 .024-.004.047-.006.071h1.688c0-.024.003-.047.003-.071 0-1.249-.896-2.312-2.143-2.698zm-16.872-.661a1.642 1.642 0 0 1-1.642-1.642v-5.487c0-.907.735-1.642 1.642-1.642H19.016c.906 0 1.643.735 1.643 1.642v5.487c0 .906-.735 1.642-1.643 1.642H12.985z"/></symbol></svg>