<?xml version="1.0" encoding="iso-8859-1"?>
<!-- Generator: Adobe Illustrator 19.0.0, SVG Export Plug-In . SVG Version: 6.00 Build 0)  -->
<svg version="1.1" id="Layer_1" xmlns="http://www.w3.org/2000/svg" xmlns:xlink="http://www.w3.org/1999/xlink" x="0px" y="0px"
	 viewBox="0 0 472.54 472.54" style="enable-background:new 0 0 472.54 472.54;" xml:space="preserve">
<g>
	<g>
		<path d="M470.343,266.683l-7.07-7.07c-0.002-0.002-21.211-21.21-21.211-21.21c-0.008-0.008-7.075-7.075-7.075-7.075
			c-2.929-2.929-7.678-2.929-10.606,0c-2.929,2.929-2.929,7.678,0,10.606l1.768,1.768l-30.208,30.208
			c-2.929,2.929-2.929,7.678,0,10.606c1.464,1.464,3.384,2.197,5.303,2.197s3.839-0.732,5.303-2.197l30.208-30.208l10.607,10.607
			l-75.203,75.203c4.753-14.194,7.334-29.374,7.334-45.146c0-78.575-63.925-142.5-142.5-142.5c-55.737,0-104.093,32.17-127.5,78.914
			v-78.914c0-39.941-17.91-77.347-47.931-102.404h141.087c-30.021,25.058-47.931,62.463-47.931,102.404c0,4.142,3.358,7.5,7.5,7.5
			c4.142,0,7.5-3.358,7.5-7.5c0-42.247,22.568-81.299,59.01-102.404h27.984c4.142,0,7.5-3.358,7.5-7.5c0-4.142-3.358-7.5-7.5-7.5
			h-30.068c-0.037,0-189.031,0-189.031,0c-0.018,0-0.035,0-0.053,0H7.5c-4.142,0-7.5,3.358-7.5,7.5c0,4.142,3.358,7.5,7.5,7.5
			h27.984c36.442,21.106,59.01,60.159,59.01,102.404v142.5c0,78.575,63.925,142.5,142.5,142.5c38.918,0,74.237-15.689,99.98-41.066
			c0.271-0.206,0.535-0.424,0.783-0.671L457.97,275.523l1.768,1.768c1.464,1.464,3.384,2.197,5.303,2.197s3.839-0.732,5.303-2.197
			C473.272,274.361,473.272,269.612,470.343,266.683z M236.993,422.473c-70.304,0-127.499-57.197-127.499-127.501
			c0-23.435,19.065-42.5,42.5-42.5h140c23.435,0,42.5,19.065,42.5,42.5s-19.065,42.5-42.5,42.5h-17.49c-0.019,0-37.5,0-37.5,0
			c-0.019,0-85.01,0-85.01,0c-0.925,0-1.851-0.037-2.774-0.096c-2.552-5.269-4.621-10.766-6.182-16.409
			c2.81,0.971,5.821,1.505,8.956,1.505h140c15.164,0,27.5-12.336,27.5-27.5s-12.336-27.5-27.5-27.5h-140
			c-15.164,0-27.5,12.336-27.5,27.5c0,18.451,4.587,36.766,13.265,52.964c19.673,36.723,57.698,59.536,99.235,59.536
			c62.033,0,112.5-50.467,112.5-112.5c0-40.353-21.36-75.805-53.363-95.661c-0.072-0.046-0.144-0.092-0.218-0.136
			c-9.772-6.032-20.531-10.61-31.975-13.433c-0.084-0.022-0.168-0.042-0.253-0.062c-8.56-2.091-17.497-3.208-26.692-3.208
			c-9.123,0-18.076,1.102-26.703,3.209c-0.11,0.025-0.219,0.055-0.328,0.086c-29.374,7.267-54.929,26.204-70.444,53.084
			c-7.785,1.729-14.978,5.038-21.228,9.577c18.632-47.352,64.816-80.955,118.703-80.955c70.304,0,127.5,57.196,127.5,127.5
			S307.297,422.473,236.993,422.473z M158.291,237.472c6.486-8.873,14.337-16.495,23.177-22.63c1.918,2.238,3.025,5.114,3.025,8.13
			v14.5H158.291z M194.507,207.231c4.582-2.222,9.343-4.087,14.246-5.571c3.767,6.452,5.741,13.729,5.741,21.313v14.5h-15v-14.5
			C199.494,217.261,197.689,211.784,194.507,207.231z M223.963,198.348c4.283-0.576,8.634-0.876,13.031-0.876
			c4.419,0,8.768,0.301,13.032,0.874c-3.641,7.636-5.532,15.985-5.532,24.626v14.5h-15v-14.5
			C229.494,214.331,227.603,205.983,223.963,198.348z M259.494,237.473v-14.5c0-7.587,1.976-14.868,5.747-21.322
			c4.921,1.491,9.68,3.36,14.241,5.578c-3.183,4.553-4.988,10.03-4.988,15.744v14.5H259.494z M289.494,237.473v-14.5
			c0-3.008,1.101-5.875,3.008-8.11c11.478,7.978,21.166,18.354,28.335,30.399c-8.485-4.943-18.335-7.789-28.843-7.789H289.494z
			 M199.494,367.536c4.142,0,7.5-3.358,7.5-7.5v-7.563h22.5v17.5c0,4.142,3.358,7.5,7.5,7.5c4.142,0,7.5-3.358,7.5-7.5v-17.5h22.5
			v7.563c0,4.142,3.358,7.5,7.5,7.5c4.142,0,7.5-3.358,7.5-7.5v-7.563h10c10.508,0,20.358-2.847,28.843-7.789
			c-17.015,28.59-48.227,47.789-83.843,47.789c-31.388,0-60.461-15.041-78.701-40h33.701v7.563
			C191.994,364.178,195.352,367.536,199.494,367.536z M274.494,297.472c-4.142,0-7.5,3.358-7.5,7.5v2.5h-22.5v-2.5
			c0-4.142-3.358-7.5-7.5-7.5c-4.142,0-7.5,3.358-7.5,7.5v2.5h-22.5v-2.5c0-4.142-3.358-7.5-7.5-7.5c-4.142,0-7.5,3.358-7.5,7.5v2.5
			h-40c-6.893,0-12.5-5.607-12.5-12.5s5.607-12.5,12.5-12.5h140c6.893,0,12.5,5.607,12.5,12.5s-5.607,12.5-12.5,12.5h-10v-2.5
			C281.994,300.83,278.636,297.472,274.494,297.472z"/>
	</g>
</g>
<g>
</g>
<g>
</g>
<g>
</g>
<g>
</g>
<g>
</g>
<g>
</g>
<g>
</g>
<g>
</g>
<g>
</g>
<g>
</g>
<g>
</g>
<g>
</g>
<g>
</g>
<g>
</g>
<g>
</g>
</svg>
