<?xml version="1.0" encoding="iso-8859-1"?>
<!-- Generator: Adobe Illustrator 16.0.0, SVG Export Plug-In . SVG Version: 6.00 Build 0)  -->
<!DOCTYPE svg PUBLIC "-//W3C//DTD SVG 1.1//EN" "http://www.w3.org/Graphics/SVG/1.1/DTD/svg11.dtd">
<svg version="1.1" id="Capa_1" xmlns="http://www.w3.org/2000/svg" xmlns:xlink="http://www.w3.org/1999/xlink" x="0px" y="0px"
	 width="409.998px" height="409.998px" viewBox="0 0 409.998 409.998" style="enable-background:new 0 0 409.998 409.998;"
	 xml:space="preserve">
<g>
	<g>
		<path d="M185.578,226.896c7.746-10.66,12.156-22.792,12.409-34.151c0.258-11.506-3.76-20.864-11.315-26.35
			c-8.479-6.159-17.913-9.554-26.577-9.554c-7.943,0-14.882,2.776-20.073,8.028c-6.678,6.757-10.121,17.331-9.965,30.58
			c0.269,22.841-8.384,37.943-15.693,46.593l-7.666,9.082l11.677,2.207c4.679,0.884,9.399,1.333,14.038,1.333
			C154.305,254.664,172.188,245.322,185.578,226.896z"/>
		<path d="M137.333,157.588c18.313,0,32.834-8.266,36.99-21.055c4.505-13.862,3.24-27.581-3.382-36.695
			c-5.323-7.328-13.91-11.358-24.19-11.358c-5.401,0-11.309,1.069-17.555,3.184c-8.193,2.768-16.423,4.172-24.471,4.172
			c-10.818,0-19.4-2.567-24.696-4.719l-11-4.475l1.508,11.781c0.746,5.847,2.139,11.499,4.13,16.805
			c7.201,19.183,21.258,32.292,41.782,38.958C123.4,156.443,130.424,157.588,137.333,157.588z"/>
		<path d="M234.75,158.975c-6.041,0-11.383,1.65-15.858,4.903c-13.445,9.769-20.53,23.584-18.479,36.046
			c2,12.137,12.164,21.646,28.614,26.783c21.806,6.795,33.499,19.693,39.464,29.314l6.27,10.104l5.707-10.433
			c2.824-5.161,5.025-10.549,6.529-16.008c5.449-19.75,1.779-38.615-10.902-56.069C265.047,168.417,249.209,158.975,234.75,158.975z
			"/>
		<path d="M198.908,115.56c16.624,0,30.469-7.014,36.137-18.3c5.521-10.991,2.89-24.659-7.409-38.485
			c-13.64-18.319-15.521-35.623-14.692-46.911L213.813,0l-10.751,5.083c-5.324,2.52-10.266,5.585-14.688,9.115
			c-16.02,12.773-24.139,30.195-24.139,51.775C164.236,93.313,179.788,115.56,198.908,115.56z"/>
		<path d="M332.762,102.26c-7.709-8.125-24.174-21.762-47.807-21.762c-7.158,0-14.58,1.229-22.057,3.663
			c-12.533,4.069-23.225,11.29-30.111,20.333c-6.969,9.154-9.219,19.09-6.334,27.965c5.725,17.624,18.491,29.014,32.518,29.014
			c7.637,0,19.098-3.342,30.367-19.242c13.193-18.618,29.064-25.757,40.051-28.465l11.58-2.852L332.762,102.26z"/>
		<path d="M182.823,142.998c0,10.111,8.185,18.297,18.295,18.297c10.112,0,18.296-8.186,18.296-18.297
			c0-10.109-8.185-18.295-18.296-18.295C191.007,124.703,182.823,132.889,182.823,142.998z"/>
		<path d="M217.676,280.292c-0.614-9.229-2.039-18.722-4.002-27.735c-1.512-6.955-3.028-13.949-5.18-20.74
			c-0.865-2.734-1.763-5.44-2.682-8.143c-2.764-1.976-4.271-3.09-6.795-5.583c0,0-2.158,7.479-7.221,13.231
			c2.746,11.644,4.666,23.019,5.263,29.955c0.693,8.067,1.093,16.104,0.974,24.203c-0.1,6.766-0.298,13.592-1.084,20.317
			c-0.96,8.132-2.176,16.165-3.55,24.237c-1.36,8.003-3.696,15.906-5.875,23.714c-2.415,8.649-5.459,17.129-8.72,25.491
			c-3.101,7.947-6.356,15.935-10.188,23.562c-1.205,2.399-2.412,4.797-3.618,7.195h32.907c4.915-13.274,9.005-26.815,12.413-40.574
			c3.915-15.794,6.109-31.829,7.569-48.009c0.745-6.625,0.758-13.464,0.671-20.134C218.467,294.266,218.143,287.293,217.676,280.292
			z"/>
	</g>
</g>
<g>
</g>
<g>
</g>
<g>
</g>
<g>
</g>
<g>
</g>
<g>
</g>
<g>
</g>
<g>
</g>
<g>
</g>
<g>
</g>
<g>
</g>
<g>
</g>
<g>
</g>
<g>
</g>
<g>
</g>
</svg>
