<?xml version="1.0" encoding="iso-8859-1"?>
<!-- Generator: Adobe Illustrator 16.0.0, SVG Export Plug-In . SVG Version: 6.00 Build 0)  -->
<!DOCTYPE svg PUBLIC "-//W3C//DTD SVG 1.1//EN" "http://www.w3.org/Graphics/SVG/1.1/DTD/svg11.dtd">
<svg version="1.1" id="Capa_1" xmlns="http://www.w3.org/2000/svg" xmlns:xlink="http://www.w3.org/1999/xlink" x="0px" y="0px"
	 width="380.929px" height="380.929px" viewBox="0 0 380.929 380.929" style="enable-background:new 0 0 380.929 380.929;"
	 xml:space="preserve">
<g>
	<g>
		<path d="M320.405,132.756c-4.228-17.404-31.51-32.024-60.939-32.659c-2.871-0.062-5.809,0.136-8.773,0.523
			c2.636-1.409,5.139-2.961,7.438-4.684c23.551-17.661,37.207-45.438,30.506-62.045c-3.991-9.883-14.292-13.582-26.943-11.233
			c-1.596-12.77-8.24-21.466-18.867-22.275c-17.855-1.356-40.191,20.073-49.89,47.866c-0.947,2.712-1.668,5.569-2.213,8.506
			c-0.528-2.941-1.23-5.803-2.159-8.521c-9.518-27.855-31.716-49.427-49.581-48.183c-10.634,0.738-17.331,9.392-19.011,22.151
			c-12.637-2.427-22.96,1.203-27.011,11.062c-6.814,16.563,6.667,44.427,30.104,62.237c2.286,1.737,4.779,3.309,7.404,4.735
			c-2.959-0.408-5.898-0.624-8.768-0.582c-29.434,0.443-56.811,14.891-61.148,32.268c-2.581,10.341,3.578,19.385,15.193,24.922
			c-6.214,11.268-5.951,22.21,2.173,29.109c13.647,11.597,44.314,7.389,68.495-9.398c2.359-1.636,4.623-3.521,6.79-5.58
			c-1.302,2.691-2.416,5.417-3.261,8.16c-8.674,28.129-3.396,58.633,11.788,68.125c9.037,5.653,19.545,2.589,28.402-6.746
			c8.797,9.392,19.281,12.521,28.354,6.931c15.246-9.396,20.722-39.863,12.229-68.051c-0.827-2.745-1.926-5.479-3.209-8.178
			c2.152,2.07,4.406,3.97,6.752,5.622c24.073,16.941,54.712,21.346,68.436,9.837c8.167-6.845,8.5-17.784,2.357-29.094
			C316.704,152.116,322.921,143.111,320.405,132.756z M255.944,141.451c-1.771,5.386-7.569,8.315-12.954,6.547
			c-3.607-1.185-6.104-4.18-6.834-7.647l-36.019-11.827c1.601,3.72,3.941,8.809,6.942,14.389c-4.354-4.608-8.44-8.433-11.47-11.122
			l-0.121,37.911c3.06,1.784,5.113,5.096,5.103,8.894c-0.017,5.668-4.627,10.248-10.295,10.232
			c-5.669-0.019-10.248-4.63-10.23-10.297c0.014-3.796,2.092-7.097,5.16-8.863l0.122-37.909c-3.045,2.671-7.159,6.47-11.541,11.048
			c3.036-5.563,5.41-10.635,7.033-14.346l-36.093,11.599c-0.751,3.462-3.269,6.44-6.883,7.604
			c-5.396,1.732-11.178-1.234-12.91-6.631c-1.734-5.396,1.234-11.179,6.631-12.91c3.615-1.161,7.394-0.208,10.021,2.168
			l36.093-11.601c-3.479-2.07-8.366-4.809-14.072-7.56c6.226,1.168,11.784,1.858,15.813,2.255l-22.181-30.741
			c-3.525,0.354-7.138-1.117-9.36-4.195c-3.314-4.596-2.279-11.013,2.317-14.328c4.597-3.319,11.013-2.282,14.329,2.315
			c2.222,3.079,2.481,6.969,1.035,10.203l22.184,30.739c0.892-3.948,1.987-9.438,2.841-15.722
			c0.816,6.289,1.874,11.786,2.742,15.741l22.38-30.598c-1.422-3.243-1.141-7.133,1.104-10.198
			c3.347-4.574,9.768-5.568,14.342-2.223c4.575,3.347,5.573,9.768,2.228,14.342c-2.243,3.065-5.865,4.514-9.387,4.139l-22.38,30.596
			c4.034-0.37,9.596-1.026,15.834-2.153c-5.73,2.716-10.631,5.423-14.124,7.469l36.019,11.832c2.644-2.358,6.428-3.29,10.032-2.105
			C254.782,130.266,257.712,136.066,255.944,141.451z"/>
		<path d="M265.237,251.222c-0.615-9.229-2.04-18.722-4.002-27.735c-1.514-6.955-3.029-13.949-5.182-20.74
			c-0.865-2.734-1.762-5.44-2.681-8.142c-7.365-3.488-14.016-8.571-14.016-8.571s2.399,9.583-0.001,16.22
			c2.746,11.645,4.666,23.02,5.264,29.956c0.692,8.067,1.093,16.104,0.974,24.203c-0.1,6.765-0.298,13.591-1.084,20.317
			c-0.96,8.132-2.176,16.165-3.55,24.236c-1.36,8.003-3.696,15.907-5.875,23.714c-2.415,8.649-5.459,17.129-8.721,25.491
			c-3.101,7.948-6.355,15.935-10.188,23.562c-1.205,2.399-2.412,4.798-3.618,7.195h32.907c4.915-13.273,9.005-26.814,12.413-40.574
			c3.915-15.794,6.109-31.828,7.569-48.009c0.744-6.625,0.758-13.464,0.671-20.134C266.026,265.195,265.703,258.223,265.237,251.222
			z"/>
	</g>
</g>
<g>
</g>
<g>
</g>
<g>
</g>
<g>
</g>
<g>
</g>
<g>
</g>
<g>
</g>
<g>
</g>
<g>
</g>
<g>
</g>
<g>
</g>
<g>
</g>
<g>
</g>
<g>
</g>
<g>
</g>
</svg>
