<?xml version="1.0" encoding="iso-8859-1"?>
<!-- Generator: Adobe Illustrator 16.0.0, SVG Export Plug-In . SVG Version: 6.00 Build 0)  -->
<!DOCTYPE svg PUBLIC "-//W3C//DTD SVG 1.1//EN" "http://www.w3.org/Graphics/SVG/1.1/DTD/svg11.dtd">
<svg version="1.1" id="Capa_1" xmlns="http://www.w3.org/2000/svg" xmlns:xlink="http://www.w3.org/1999/xlink" x="0px" y="0px"
	 width="418.809px" height="418.809px" viewBox="0 0 418.809 418.809" style="enable-background:new 0 0 418.809 418.809;"
	 xml:space="preserve">
<g>
	<g>
		<path d="M259.234,418.809c5.104-13.779,9.368-27.83,12.908-42.115c4.065-16.414,6.35-33.077,7.864-49.893
			c0.775-6.886,0.787-13.992,0.696-20.925c-0.097-7.293-0.433-14.538-0.917-21.813c-0.639-9.592-2.121-19.457-4.16-28.824
			c-1.57-7.229-3.146-14.496-5.383-21.555c-0.899-2.84-1.831-5.654-2.785-8.461c-2.873-2.055-5.643-4.383-8.266-6.976
			c-0.199,8.983-1.5,17.226-3.824,24.575c1.355,7.104,2.373,14.271,2.992,21.479c0.722,8.383,1.137,16.735,1.013,25.152
			c-0.105,7.03-0.311,14.124-1.126,21.114c-0.998,8.45-2.263,16.8-3.69,25.188c-1.411,8.316-3.841,16.531-6.105,24.645
			c-2.508,8.988-5.672,17.801-9.062,26.49c-3.222,8.262-6.604,16.561-10.585,24.488c-1.245,2.477-2.489,4.951-3.735,7.428h34.166
			V418.809z"/>
		<path d="M285.144,125.472h1.381c19.521,0,36.843-8.162,44.138-20.801c5.591-9.682,4.904-21.109-1.984-33.045
			c-8.038-13.924-20.196-21.28-35.161-21.28c-10.254,0-21.454,3.467-33.293,10.301c-22.768,13.143-32.225,45.117-35.87,63.409
			c-2.367-3.24-5.752-5.686-9.693-6.851l0.793-2.231c4.092-11.498,11.604-29.732,24.185-51.349
			c9.851-16.938,11.501-36.084,4.199-48.779C238.249,5.131,227.999,0,214.197,0c-27.391,0-43.74,20.104-43.74,53.788
			c0,26.346,22.936,50.471,36.957,62.76c-4.15,0.443-7.879,2.266-10.746,4.992l-1.552-1.824
			c-7.906-9.283-19.939-24.908-32.374-46.609c-9.75-17.021-25.528-28.025-40.191-28.025c-11.183,0-20.735,6.313-27.628,18.249
			c-6.474,11.212-7.924,22.888-4.197,33.771c3.993,11.669,13.992,22.388,28.914,30.999c8.206,4.739,18.468,7.137,30.502,7.137
			c15.977,0,31.734-4.174,42.334-7.768c-1.014,2.29-1.59,4.818-1.59,7.486c0,1.491,0.195,2.934,0.529,4.322l-2.356,0.432
			c-11.748,2.163-30.896,4.732-55.397,4.732h-1.378c-19.521,0-36.843,8.16-44.137,20.799c-5.591,9.682-4.905,21.109,1.985,33.045
			c8.038,13.924,20.196,21.28,35.161,21.28c10.253,0,21.452-3.467,33.291-10.3c22.767-13.141,32.226-45.116,35.874-63.408
			c2.366,3.238,5.75,5.685,9.691,6.849l-0.793,2.233c-4.092,11.495-11.604,29.73-24.186,51.348
			c-9.849,16.938-11.5,36.083-4.198,48.778c5.585,9.715,15.839,14.847,29.642,14.847c12.948,0,23.787-4.58,31.347-13.252
			c8.104-9.289,12.393-23.31,12.393-40.537c0.001-26.344-22.933-50.47-36.956-62.76c4.146-0.445,7.88-2.266,10.747-4.99l1.551,1.822
			c7.907,9.285,19.939,24.911,32.374,46.609c9.751,17.023,25.528,28.025,40.191,28.025c11.183,0,20.734-6.312,27.627-18.248
			c6.475-11.211,7.925-22.889,4.197-33.771c-3.993-11.669-13.993-22.389-28.914-31.003c-8.208-4.738-18.468-7.135-30.502-7.135
			c-15.977,0-31.738,4.176-42.334,7.769c1.014-2.29,1.59-4.818,1.59-7.487c0-1.491-0.194-2.934-0.528-4.322l2.356-0.431
			C241.496,128.04,260.64,125.472,285.144,125.472z"/>
	</g>
</g>
<g>
</g>
<g>
</g>
<g>
</g>
<g>
</g>
<g>
</g>
<g>
</g>
<g>
</g>
<g>
</g>
<g>
</g>
<g>
</g>
<g>
</g>
<g>
</g>
<g>
</g>
<g>
</g>
<g>
</g>
</svg>
