<?xml version="1.0" encoding="iso-8859-1"?>
<!-- Generator: Adobe Illustrator 19.0.0, SVG Export Plug-In . SVG Version: 6.00 Build 0)  -->
<svg version="1.1" id="Layer_1" xmlns="http://www.w3.org/2000/svg" xmlns:xlink="http://www.w3.org/1999/xlink" x="0px" y="0px"
	 viewBox="0 0 470 470" style="enable-background:new 0 0 470 470;" xml:space="preserve">
<g>
	<g>
		<path d="M467.804,114.79L355.211,2.197c-2.415-2.415-6.157-2.894-9.102-1.164c-2.944,1.729-4.35,5.229-3.417,8.515
			c11.694,41.217,0.121,85.658-30.203,115.981l-73.73,73.729l-15.913-15.912c-1.407-1.407-3.314-2.197-5.303-2.197
			s-3.897,0.79-5.303,2.197l-5.304,5.305l-10.609-10.609l5.305-5.305c2.929-2.929,2.929-7.678,0-10.606
			c-2.928-2.929-7.677-2.929-10.606,0l-21.216,21.215c-2.929,2.929-2.929,7.677,0,10.606c1.464,1.465,3.384,2.197,5.303,2.197
			s3.839-0.732,5.303-2.197l5.305-5.304l10.609,10.609l-5.305,5.305c-2.929,2.929-2.929,7.678,0,10.606l15.912,15.913
			l-10.609,10.609l-15.912-15.912c-2.929-2.929-7.678-2.929-10.606,0l-5.305,5.305l-10.609-10.609l5.305-5.305
			c2.929-2.929,2.929-7.678,0-10.606c-2.929-2.929-7.678-2.929-10.606,0l-10.605,10.605c-0.005,0.005-10.61,10.61-10.61,10.61
			c-2.929,2.929-2.929,7.678,0,10.606c1.464,1.464,3.384,2.197,5.303,2.197c1.919,0,3.839-0.732,5.303-2.197l5.304-5.304
			l10.609,10.609l-5.305,5.305c-1.407,1.406-2.197,3.314-2.197,5.303s0.79,3.897,2.197,5.303l15.913,15.912l-10.609,10.609
			l-15.912-15.913c-1.406-1.407-3.314-2.197-5.303-2.197c-1.989,0-3.897,0.79-5.303,2.197l-5.305,5.305l-10.609-10.609l5.304-5.304
			c2.929-2.929,2.929-7.677,0-10.606c-2.928-2.929-7.677-2.929-10.606,0l-10.605,10.605c-0.005,0.005-10.61,10.61-10.61,10.61
			c-2.929,2.929-2.929,7.678,0,10.606c1.464,1.465,3.384,2.197,5.303,2.197s3.839-0.732,5.303-2.197l5.305-5.305l10.609,10.609
			l-5.305,5.305c-2.929,2.929-2.929,7.678,0,10.606l15.912,15.913L14.572,423.447l-1.769-1.769c-2.929-2.929-7.678-2.929-10.606,0
			c-2.929,2.929-2.929,7.678,0,10.606l35.519,35.519C39.18,469.267,41.1,470,43.019,470s3.839-0.732,5.303-2.197
			c2.929-2.929,2.929-7.678,0-10.606l-1.769-1.769l49.619-49.619c3.545,8.125,8.594,15.56,14.942,21.908
			c13.464,13.464,31.365,20.879,50.406,20.879c19.041,0,36.942-7.415,50.406-20.879l10.961-10.96l15.912,15.912
			c1.465,1.465,3.384,2.197,5.304,2.197c1.919,0,3.839-0.732,5.304-2.197l21.216-21.215c1.406-1.406,2.196-3.314,2.196-5.303
			s-0.79-3.897-2.196-5.303l-15.913-15.913l10.609-10.609l15.912,15.912c1.465,1.464,3.385,2.197,5.304,2.197
			c1.919,0,3.839-0.732,5.304-2.197l21.216-21.216c1.406-1.406,2.196-3.314,2.196-5.303s-0.79-3.897-2.196-5.303l-15.912-15.912
			l10.609-10.609l15.912,15.912c1.407,1.407,3.314,2.197,5.304,2.197s3.896-0.79,5.304-2.197l21.215-21.216
			c2.929-2.929,2.929-7.678,0-10.606l-15.912-15.912l10.961-10.961c27.793-27.794,27.793-73.018,0-100.812
			c-13.464-13.464-31.365-20.879-50.406-20.879c-2.994,0-5.956,0.205-8.881,0.566l31.85-31.85
			c28.242-28.24,42.048-67.351,38.544-106.296l78.521,78.522c-38.949-3.503-78.055,10.301-106.297,38.542
			c-2.929,2.929-2.929,7.678,0,10.606c2.929,2.929,7.677,2.929,10.607,0c30.324-30.325,74.768-41.898,115.98-30.201
			c3.289,0.932,6.786-0.473,8.516-3.417C470.696,120.946,470.218,117.205,467.804,114.79z M206.935,209.865l5.302-5.302
			c0.005-0.005,5.307-5.307,5.307-5.307l10.61,10.609l-10.609,10.609L206.935,209.865z M164.503,252.297l10.609-10.609
			l10.609,10.609l-10.609,10.609L164.503,252.297z M122.072,294.728l10.609-10.609l10.609,10.609l-10.609,10.609L122.072,294.728z
			 M201.32,417.111c-10.631,10.631-24.766,16.486-39.8,16.486s-29.169-5.854-39.8-16.485c-6.452-6.452-11.209-14.319-13.91-22.939
			l12.862-12.862c0.907,9.465,5.021,18.237,11.817,25.033c8.004,8.004,18.518,12.006,29.031,12.006s21.028-4.002,29.032-12.006
			l10.96-10.961l10.768,10.768L201.32,417.111z M143.095,358.887l10.961-10.962l36.85,36.85l-10.96,10.961
			c-10.16,10.159-26.691,10.16-36.85,0C132.937,385.576,132.936,369.047,143.095,358.887z M254.714,406.15l-10.611,10.609
			l-79.44-79.44l31.825-31.825l36.85,36.85l-10.609,10.609l-20.938-20.938c-2.929-2.929-7.678-2.929-10.606,0
			c-2.929,2.929-2.929,7.678,0,10.606l47.611,47.611C238.806,390.242,254.714,406.15,254.714,406.15z M244.103,374.327
			l-10.768-10.768l10.609-10.609l10.768,10.768L244.103,374.327z M286.534,374.328l-15.907-15.907
			c-0.01-0.01-63.533-63.533-63.533-63.533l31.825-31.825l36.85,36.85l-10.609,10.609l-20.938-20.938
			c-2.93-2.929-7.679-2.929-10.607,0c-2.929,2.929-2.929,7.678,0,10.606l26.234,26.234c0.014,0.013,21.373,21.373,21.373,21.373
			c0.017,0.017,15.921,15.921,15.921,15.921L286.534,374.328z M286.534,331.896l-10.768-10.768l10.609-10.609l10.768,10.768
			L286.534,331.896z M339.575,321.287l-10.609,10.609l-15.911-15.911c-0.002-0.002-63.53-63.529-63.53-63.529l32.176-32.176
			c10.16-10.159,26.69-10.16,36.851,0c4.912,4.912,7.616,11.455,7.616,18.425c0,6.97-2.705,13.514-7.617,18.425l-10.96,10.96
			l-20.937-20.937c-2.929-2.929-7.677-2.93-10.607,0c-2.929,2.929-2.929,7.678,0,10.606L339.575,321.287z M300.127,182.42
			c15.034,0,29.169,5.854,39.799,16.485c21.945,21.946,21.945,57.654,0,79.599l-10.96,10.961l-10.768-10.768l10.96-10.961
			c7.745-7.744,12.011-18.054,12.011-29.031c0-10.977-4.265-21.287-12.009-29.032c-16.01-16.008-42.055-16.008-58.064,0
			L35.947,444.822l-10.769-10.769l235.139-235.139C270.976,188.267,285.102,182.42,300.127,182.42z"/>
	</g>
</g>
<g>
</g>
<g>
</g>
<g>
</g>
<g>
</g>
<g>
</g>
<g>
</g>
<g>
</g>
<g>
</g>
<g>
</g>
<g>
</g>
<g>
</g>
<g>
</g>
<g>
</g>
<g>
</g>
<g>
</g>
</svg>
