<?xml version='1.0' encoding='iso-8859-1'?>
<!DOCTYPE svg PUBLIC '-//W3C//DTD SVG 1.1//EN' 'http://www.w3.org/Graphics/SVG/1.1/DTD/svg11.dtd'>
<svg version="1.1" xmlns="http://www.w3.org/2000/svg" viewBox="0 0 460 460" xmlns:xlink="http://www.w3.org/1999/xlink" enable-background="new 0 0 460 460">
  <g>
    <path d="m389.763,123.037c-1.983,0-3.936,0.806-5.335,2.205-1.409,1.409-2.215,3.363-2.215,5.346 0,1.983 0.806,3.926 2.215,5.336 1.41,1.409 3.352,2.214 5.335,2.214 1.994,0 3.936-0.805 5.336-2.214 1.409-1.41 2.214-3.352 2.214-5.336 0-1.983-0.805-3.936-2.214-5.346-1.399-1.399-3.342-2.205-5.336-2.205z"/>
    <path d="m289.468,123.037c-1.983,0-3.936,0.806-5.335,2.205-1.41,1.409-2.215,3.352-2.215,5.346 0,1.983 0.805,3.926 2.215,5.336 1.399,1.409 3.352,2.214 5.335,2.214 1.994,0 3.936-0.805 5.346-2.214 1.399-1.41 2.214-3.352 2.214-5.336 0-1.993-0.815-3.936-2.214-5.346-1.41-1.399-3.352-2.205-5.346-2.205z"/>
    <path d="m434.926,136.852c0-8.682-2.281-17.622-6.26-24.701 3.931-5.387 6.26-12.013 6.26-19.178 0-17.989-14.635-32.624-32.624-32.624-15.98,0-29.298,11.554-32.075,26.745h-61.216c-2.777-15.191-16.096-26.745-32.076-26.745-14.254,0-26.393,9.192-30.824,21.957-5.375-0.616-11.048-1.194-16.998-1.7-38.326-3.258-95.104-4.031-147.967,10.795-33.617,9.428-58.15,28.499-70.947,55.152-15.955,33.227-13.149,77.22 8.114,127.222 31.301,73.61 63.79,120.666 65.157,122.633 1.412,2.03 3.727,3.24 6.199,3.24h70.868c4.17,0 7.55-3.38 7.55-7.55v-43.443c0-13.325 11.705-24.64 24.863-25.011 13.797-0.389 26.287,11.208 26.287,25.011v43.445c0,4.17 3.38,7.55 7.55,7.55h108.607c2.432,0 4.716-1.172 6.133-3.148 1.844-2.569 37.8-53.136 62.752-120.471 30.751-0.151 55.721-26.123 55.721-56.906 0-23.275-14.276-44.188-34.529-52.628 5.934-8.1 9.455-18.857 9.455-29.645zm-175.514,0c0-18.678 15.196-34.657 33.873-34.657h92.668c18.678,0 33.873,15.98 33.873,34.657 0,9.799-4.201,19.402-10.876,25.59-1.631-0.144-137.031-0.144-138.662,0-6.675-6.188-10.876-15.791-10.876-25.59zm142.891-61.402c9.663,0 17.523,7.861 17.523,17.524 0,2.325-0.47,4.538-1.297,6.568-8.662-7.734-20.077-12.447-32.576-12.447h-0.138c2.424-6.775 8.889-11.645 16.488-11.645zm-125.367,0c7.598,0 14.058,4.869 16.478,11.645h-0.128c-12.501,0-23.918,4.715-32.581,12.451-0.829-2.03-1.293-4.246-1.293-6.572 0-9.663 7.861-17.524 17.524-17.524zm-123.948,273.207v35.892h-16.098l-1.568-7.841c-3.028-15.142-1.043-27.178 5.9-35.777 3.939-4.878 9.527-8.735 16.716-11.562-3.152,5.729-4.95,12.302-4.95,19.288zm-31.497,35.893h-27.795c-7.817-11.849-35.389-55.313-61.486-116.683-19.514-45.888-22.417-85.578-8.398-114.776 10.863-22.624 32.099-38.928 61.412-47.149 55.925-15.684 117.234-13.369 159.395-8.534 0.745,5.459 2.846,10.489 5.951,14.745-3.979,7.078-6.259,16.017-6.259,24.699 0,10.788 3.521,21.545 9.455,29.644-20.253,8.439-34.529,29.353-34.529,52.628 0,30.877 25.12,56.914 55.997,56.914h112.841c-20.878,54.076-48.723,96.857-56.638,108.512h-40.273l21.158-72.391c1.169-4.002-1.127-8.195-5.129-9.365-4.009-1.171-8.196,1.127-9.366,5.129l-22.396,76.627h-41.094v-35.892c0-22.129-18.005-40.427-40.133-40.133-29.115,0.387-53.097,8.512-64.731,22.92-9.754,12.081-11.876,33.636-7.982,53.105zm323.409-165.425c0,22.551-18.346,41.813-40.896,41.813h-128.769c-22.55,0-40.896-19.263-40.896-41.813s18.346-41.813 40.896-41.813h128.769c22.549-0.001 40.896,19.262 40.896,41.813z"/>
    <path d="m271.294,194.659c-13.49,0-24.465,10.975-24.465,24.466 0,13.49 10.975,24.465 24.465,24.465s24.465-10.975 24.465-24.465c5.68434e-14-13.491-10.975-24.466-24.465-24.466zm0,38.864c-7.939,0-14.398-6.459-14.398-14.398 0-7.939 6.459-14.399 14.398-14.399 7.939,0 14.398,6.459 14.398,14.399 0,7.939-6.459,14.398-14.398,14.398z"/>
    <path d="m407.945,194.659c-13.49,0-24.465,10.975-24.465,24.466 0,13.49 10.975,24.465 24.465,24.465 13.49,0 24.465-10.975 24.465-24.465 5.68434e-14-13.491-10.975-24.466-24.465-24.466zm0,38.864c-7.939,0-14.398-6.459-14.398-14.398 0-7.939 6.459-14.399 14.398-14.399 7.939,0 14.398,6.459 14.398,14.399 0,7.939-6.459,14.398-14.398,14.398z"/>
  </g>
</svg>
